<svg width="1440" height="6797" viewBox="0 0 1440 6797" fill="none" xmlns="http://www.w3.org/2000/svg">
<path d="M1.49844 1440.5H79.9168M79.9168 1440.5H159.834M79.9168 1440.5V1442M79.9168 1440.5V1360.58M159.834 1440.5H239.75M159.834 1440.5V1442M159.834 1440.5V1360.58M239.75 1440.5H319.667M239.75 1440.5V1442M239.75 1440.5V1360.58M319.667 1440.5H399.584M319.667 1440.5V1442M319.667 1440.5V1360.58M399.584 1440.5H479.501M399.584 1440.5V1442M399.584 1440.5V1360.58M479.501 1440.5H559.417M479.501 1440.5V1442M479.501 1440.5V1360.58M559.417 1440.5H639.334M559.417 1440.5V1442M559.417 1440.5V1360.58M639.334 1440.5H719.251M639.334 1440.5V1442M639.334 1440.5V1360.58M719.251 1440.5H799.168M719.251 1440.5V1442M719.251 1440.5V1360.58M799.168 1440.5H879.084M799.168 1440.5V1442M799.168 1440.5V1360.58M879.084 1440.5H959.001M879.084 1440.5V1442M879.084 1440.5V1360.58M959.001 1440.5H1038.92M959.001 1440.5V1442M959.001 1440.5V1360.58M1038.92 1440.5H1118.83M1038.92 1440.5V1442M1038.92 1440.5V1360.58M1118.83 1440.5H1198.75M1118.83 1440.5V1442M1118.83 1440.5V1360.58M1198.75 1440.5H1278.67M1198.75 1440.5V1442M1198.75 1440.5V1360.58M1278.67 1440.5H1358.58M1278.67 1440.5V1442M1278.67 1440.5V1360.58M1358.58 1440.5H1438.5M1358.58 1440.5V1442M1358.58 1440.5V1360.58M1438.5 1440.5H1440M1438.5 1440.5V1442M1438.5 1440.5V1360.58M1.49844 1360.58H79.9168M79.9168 1360.58H159.834M79.9168 1360.58V1280.67M159.834 1360.58H239.75M159.834 1360.58V1280.67M239.75 1360.58H319.667M239.75 1360.58V1280.67M319.667 1360.58H399.584M319.667 1360.58V1280.67M399.584 1360.58H479.501M399.584 1360.58V1280.67M479.501 1360.58H559.417M479.501 1360.58V1280.67M559.417 1360.58H639.334M559.417 1360.58V1280.67M639.334 1360.58H719.251M639.334 1360.58V1280.67M719.251 1360.58H799.168M719.251 1360.58V1280.67M799.168 1360.58H879.084M799.168 1360.58V1280.67M879.084 1360.58H959.001M879.084 1360.58V1280.67M959.001 1360.58H1038.92M959.001 1360.58V1280.67M1038.92 1360.58H1118.83M1038.92 1360.58V1280.67M1118.83 1360.58H1198.75M1118.83 1360.58V1280.67M1198.75 1360.58H1278.67M1198.75 1360.58V1280.67M1278.67 1360.58H1358.58M1278.67 1360.58V1280.67M1358.58 1360.58H1438.5M1358.58 1360.58V1280.67M1438.5 1360.58H1440M1438.5 1360.58V1280.67M1.49844 1280.67H79.9168M79.9168 1280.67H159.834M79.9168 1280.67V1200.75M159.834 1280.67H239.75M159.834 1280.67V1200.75M239.75 1280.67H319.667M239.75 1280.67V1200.75M319.667 1280.67H399.584M319.667 1280.67V1200.75M399.584 1280.67H479.501M399.584 1280.67V1200.75M479.501 1280.67H559.417M479.501 1280.67V1200.75M559.417 1280.67H639.334M559.417 1280.67V1200.75M639.334 1280.67H719.251M639.334 1280.67V1200.75M719.251 1280.67H799.168M719.251 1280.67V1200.75M799.168 1280.67H879.084M799.168 1280.67V1200.75M879.084 1280.67H959.001M879.084 1280.67V1200.75M959.001 1280.67H1038.92M959.001 1280.67V1200.75M1038.92 1280.67H1118.83M1038.92 1280.67V1200.75M1118.83 1280.67H1198.75M1118.83 1280.67V1200.75M1198.75 1280.67H1278.67M1198.75 1280.67V1200.75M1278.67 1280.67H1358.58M1278.67 1280.67V1200.75M1358.58 1280.67H1438.5M1358.58 1280.67V1200.75M1438.5 1280.67H1440M1438.5 1280.67V1200.75M1.49844 1200.75H79.9168M79.9168 1200.75H159.834M79.9168 1200.75V1120.83M159.834 1200.75H239.75M159.834 1200.75V1120.83M239.75 1200.75H319.667M239.75 1200.75V1120.83M319.667 1200.75H399.584M319.667 1200.75V1120.83M399.584 1200.75H479.501M399.584 1200.75V1120.83M479.501 1200.75H559.417M479.501 1200.75V1120.83M559.417 1200.75H639.334M559.417 1200.75V1120.83M639.334 1200.75H719.251M639.334 1200.75V1120.83M719.251 1200.75H799.168M719.251 1200.75V1120.83M799.168 1200.75H879.084M799.168 1200.75V1120.83M879.084 1200.75H959.001M879.084 1200.75V1120.83M959.001 1200.75H1038.92M959.001 1200.75V1120.83M1038.92 1200.75H1118.83M1038.92 1200.75V1120.83M1118.83 1200.75H1198.75M1118.83 1200.75V1120.83M1198.75 1200.75H1278.67M1198.75 1200.75V1120.83M1278.67 1200.75H1358.58M1278.67 1200.75V1120.83M1358.58 1200.75H1438.5M1358.58 1200.75V1120.83M1438.5 1200.75H1440M1438.5 1200.75V1120.83M1.49844 1120.83H79.9168M79.9168 1120.83H159.834M79.9168 1120.83V1040.92M159.834 1120.83H239.75M159.834 1120.83V1040.92M239.75 1120.83H319.667M239.75 1120.83V1040.92M319.667 1120.83H399.584M319.667 1120.83V1040.92M399.584 1120.83H479.501M399.584 1120.83V1040.92M479.501 1120.83H559.417M479.501 1120.83V1040.92M559.417 1120.83H639.334M559.417 1120.83V1040.92M639.334 1120.83H719.251M639.334 1120.83V1040.92M719.251 1120.83H799.168M719.251 1120.83V1040.92M799.168 1120.83H879.084M799.168 1120.83V1040.92M879.084 1120.83H959.001M879.084 1120.83V1040.92M959.001 1120.83H1038.92M959.001 1120.83V1040.92M1038.92 1120.83H1118.83M1038.92 1120.83V1040.92M1118.83 1120.83H1198.75M1118.83 1120.83V1040.92M1198.75 1120.83H1278.67M1198.75 1120.83V1040.92M1278.67 1120.83H1358.58M1278.67 1120.83V1040.92M1358.58 1120.83H1438.5M1358.58 1120.83V1040.92M1438.5 1120.83H1440M1438.5 1120.83V1040.92M1.49844 1040.92H79.9168M79.9168 1040.92H159.834M79.9168 1040.92V961.001M159.834 1040.92H239.75M159.834 1040.92V961.001M239.75 1040.92H319.667M239.75 1040.92V961.001M319.667 1040.92H399.584M319.667 1040.92V961.001M399.584 1040.92H479.501M399.584 1040.92V961.001M479.501 1040.92H559.417M479.501 1040.92V961.001M559.417 1040.92H639.334M559.417 1040.92V961.001M639.334 1040.92H719.251M639.334 1040.92V961.001M719.251 1040.92H799.168M719.251 1040.92V961.001M799.168 1040.92H879.084M799.168 1040.92V961.001M879.084 1040.92H959.001M879.084 1040.92V961.001M959.001 1040.92H1038.92M959.001 1040.92V961.001M1038.92 1040.92H1118.83M1038.92 1040.92V961.001M1118.83 1040.92H1198.75M1118.83 1040.92V961.001M1198.75 1040.92H1278.67M1198.75 1040.92V961.001M1278.67 1040.92H1358.58M1278.67 1040.92V961.001M1358.58 1040.92H1438.5M1358.58 1040.92V961.001M1438.5 1040.92H1440M1438.5 1040.92V961.001M1.49844 961.001H79.9168M79.9168 961.001H159.834M79.9168 961.001V881.084M159.834 961.001H239.75M159.834 961.001V881.084M239.75 961.001H319.667M239.75 961.001V881.084M319.667 961.001H399.584M319.667 961.001V881.084M399.584 961.001H479.501M399.584 961.001V881.084M479.501 961.001H559.417M479.501 961.001V881.084M559.417 961.001H639.334M559.417 961.001V881.084M639.334 961.001H719.251M639.334 961.001V881.084M719.251 961.001H799.168M719.251 961.001V881.084M799.168 961.001H879.084M799.168 961.001V881.084M879.084 961.001H959.001M879.084 961.001V881.084M959.001 961.001H1038.92M959.001 961.001V881.084M1038.92 961.001H1118.83M1038.92 961.001V881.084M1118.83 961.001H1198.75M1118.83 961.001V881.084M1198.75 961.001H1278.67M1198.75 961.001V881.084M1278.67 961.001H1358.58M1278.67 961.001V881.084M1358.58 961.001H1438.5M1358.58 961.001V881.084M1438.5 961.001H1440M1438.5 961.001V881.084M1.49844 881.084H79.9168M79.9168 881.084H159.834M79.9168 881.084V801.168M159.834 881.084H239.75M159.834 881.084V801.168M239.75 881.084H319.667M239.75 881.084V801.168M319.667 881.084H399.584M319.667 881.084V801.168M399.584 881.084H479.501M399.584 881.084V801.168M479.501 881.084H559.417M479.501 881.084V801.168M559.417 881.084H639.334M559.417 881.084V801.168M639.334 881.084H719.251M639.334 881.084V801.168M719.251 881.084H799.168M719.251 881.084V801.168M799.168 881.084H879.084M799.168 881.084V801.168M879.084 881.084H959.001M879.084 881.084V801.168M959.001 881.084H1038.92M959.001 881.084V801.168M1038.92 881.084H1118.83M1038.92 881.084V801.168M1118.83 881.084H1198.75M1118.83 881.084V801.168M1198.75 881.084H1278.67M1198.75 881.084V801.168M1278.67 881.084H1358.58M1278.67 881.084V801.168M1358.58 881.084H1438.5M1358.58 881.084V801.168M1438.5 881.084H1440M1438.5 881.084V801.168M1.49844 801.168H79.9168M79.9168 801.168H159.834M79.9168 801.168V721.251M159.834 801.168H239.75M159.834 801.168V721.251M239.75 801.168H319.667M239.75 801.168V721.251M319.667 801.168H399.584M319.667 801.168V721.251M399.584 801.168H479.501M399.584 801.168V721.251M479.501 801.168H559.417M479.501 801.168V721.251M559.417 801.168H639.334M559.417 801.168V721.251M639.334 801.168H719.251M639.334 801.168V721.251M719.251 801.168H799.168M719.251 801.168V721.251M799.168 801.168H879.084M799.168 801.168V721.251M879.084 801.168H959.001M879.084 801.168V721.251M959.001 801.168H1038.92M959.001 801.168V721.251M1038.92 801.168H1118.83M1038.92 801.168V721.251M1118.83 801.168H1198.75M1118.83 801.168V721.251M1198.75 801.168H1278.67M1198.75 801.168V721.251M1278.67 801.168H1358.58M1278.67 801.168V721.251M1358.58 801.168H1438.5M1358.58 801.168V721.251M1438.5 801.168H1440M1438.5 801.168V721.251M1.49844 721.251H79.9168M79.9168 721.251H159.834M79.9168 721.251V641.334M159.834 721.251H239.75M159.834 721.251V641.334M239.75 721.251H319.667M239.75 721.251V641.334M319.667 721.251H399.584M319.667 721.251V641.334M399.584 721.251H479.501M399.584 721.251V641.334M479.501 721.251H559.417M479.501 721.251V641.334M559.417 721.251H639.334M559.417 721.251V641.334M639.334 721.251H719.251M639.334 721.251V641.334M719.251 721.251H799.168M719.251 721.251V641.334M799.168 721.251H879.084M799.168 721.251V641.334M879.084 721.251H959.001M879.084 721.251V641.334M959.001 721.251H1038.92M959.001 721.251V641.334M1038.92 721.251H1118.83M1038.92 721.251V641.334M1118.83 721.251H1198.75M1118.83 721.251V641.334M1198.75 721.251H1278.67M1198.75 721.251V641.334M1278.67 721.251H1358.58M1278.67 721.251V641.334M1358.58 721.251H1438.5M1358.58 721.251V641.334M1438.5 721.251H1440M1438.5 721.251V641.334M1.49844 641.334H79.9168M79.9168 641.334H159.834M79.9168 641.334V561.417M159.834 641.334H239.75M159.834 641.334V561.417M239.75 641.334H319.667M239.75 641.334V561.417M319.667 641.334H399.584M319.667 641.334V561.417M399.584 641.334H479.501M399.584 641.334V561.417M479.501 641.334H559.417M479.501 641.334V561.417M559.417 641.334H639.334M559.417 641.334V561.417M639.334 641.334H719.251M639.334 641.334V561.417M719.251 641.334H799.168M719.251 641.334V561.417M799.168 641.334H879.084M799.168 641.334V561.417M879.084 641.334H959.001M879.084 641.334V561.417M959.001 641.334H1038.92M959.001 641.334V561.417M1038.92 641.334H1118.83M1038.92 641.334V561.417M1118.83 641.334H1198.75M1118.83 641.334V561.417M1198.75 641.334H1278.67M1198.75 641.334V561.417M1278.67 641.334H1358.58M1278.67 641.334V561.417M1358.58 641.334H1438.5M1358.58 641.334V561.417M1438.5 641.334H1440M1438.5 641.334V561.417M1.49844 561.417H79.9168M79.9168 561.417H159.834M79.9168 561.417V481.501M159.834 561.417H239.75M159.834 561.417V481.501M239.75 561.417H319.667M239.75 561.417V481.501M319.667 561.417H399.584M319.667 561.417V481.501M399.584 561.417H479.501M399.584 561.417V481.501M479.501 561.417H559.417M479.501 561.417V481.501M559.417 561.417H639.334M559.417 561.417V481.501M639.334 561.417H719.251M639.334 561.417V481.501M719.251 561.417H799.168M719.251 561.417V481.501M799.168 561.417H879.084M799.168 561.417V481.501M879.084 561.417H959.001M879.084 561.417V481.501M959.001 561.417H1038.92M959.001 561.417V481.501M1038.92 561.417H1118.83M1038.92 561.417V481.501M1118.83 561.417H1198.75M1118.83 561.417V481.501M1198.75 561.417H1278.67M1198.75 561.417V481.501M1278.67 561.417H1358.58M1278.67 561.417V481.501M1358.58 561.417H1438.5M1358.58 561.417V481.501M1438.5 561.417H1440M1438.5 561.417V481.501M1.49844 481.501H79.9168M79.9168 481.501H159.834M79.9168 481.501V401.584M159.834 481.501H239.75M159.834 481.501V401.584M239.75 481.501H319.667M239.75 481.501V401.584M319.667 481.501H399.584M319.667 481.501V401.584M399.584 481.501H479.501M399.584 481.501V401.584M479.501 481.501H559.417M479.501 481.501V401.584M559.417 481.501H639.334M559.417 481.501V401.584M639.334 481.501H719.251M639.334 481.501V401.584M719.251 481.501H799.168M719.251 481.501V401.584M799.168 481.501H879.084M799.168 481.501V401.584M879.084 481.501H959.001M879.084 481.501V401.584M959.001 481.501H1038.92M959.001 481.501V401.584M1038.92 481.501H1118.83M1038.92 481.501V401.584M1118.83 481.501H1198.75M1118.83 481.501V401.584M1198.75 481.501H1278.67M1198.75 481.501V401.584M1278.67 481.501H1358.58M1278.67 481.501V401.584M1358.58 481.501H1438.5M1358.58 481.501V401.584M1438.5 481.501H1440M1438.5 481.501V401.584M1.49844 401.584H79.9168M79.9168 401.584H159.834M79.9168 401.584V321.667M159.834 401.584H239.75M159.834 401.584V321.667M239.75 401.584H319.667M239.75 401.584V321.667M319.667 401.584H399.584M319.667 401.584V321.667M399.584 401.584H479.501M399.584 401.584V321.667M479.501 401.584H559.417M479.501 401.584V321.667M559.417 401.584H639.334M559.417 401.584V321.667M639.334 401.584H719.251M639.334 401.584V321.667M719.251 401.584H799.168M719.251 401.584V321.667M799.168 401.584H879.084M799.168 401.584V321.667M879.084 401.584H959.001M879.084 401.584V321.667M959.001 401.584H1038.92M959.001 401.584V321.667M1038.92 401.584H1118.83M1038.92 401.584V321.667M1118.83 401.584H1198.75M1118.83 401.584V321.667M1198.75 401.584H1278.67M1198.75 401.584V321.667M1278.67 401.584H1358.58M1278.67 401.584V321.667M1358.58 401.584H1438.5M1358.58 401.584V321.667M1438.5 401.584H1440M1438.5 401.584V321.667M1.49844 321.667H79.9168M79.9168 321.667H159.834M79.9168 321.667V241.75M159.834 321.667H239.75M159.834 321.667V241.75M239.75 321.667H319.667M239.75 321.667V241.75M319.667 321.667H399.584M319.667 321.667V241.75M399.584 321.667H479.501M399.584 321.667V241.75M479.501 321.667H559.417M479.501 321.667V241.75M559.417 321.667H639.334M559.417 321.667V241.75M639.334 321.667H719.251M639.334 321.667V241.75M719.251 321.667H799.168M719.251 321.667V241.75M799.168 321.667H879.084M799.168 321.667V241.75M879.084 321.667H959.001M879.084 321.667V241.75M959.001 321.667H1038.92M959.001 321.667V241.75M1038.92 321.667H1118.83M1038.92 321.667V241.75M1118.83 321.667H1198.75M1118.83 321.667V241.75M1198.75 321.667H1278.67M1198.75 321.667V241.75M1278.67 321.667H1358.58M1278.67 321.667V241.75M1358.58 321.667H1438.5M1358.58 321.667V241.75M1438.5 321.667H1440M1438.5 321.667V241.75M1.49844 241.75H79.9168M79.9168 241.75H159.834M79.9168 241.75V161.834M159.834 241.75H239.75M159.834 241.75V161.834M239.75 241.75H319.667M239.75 241.75V161.834M319.667 241.75H399.584M319.667 241.75V161.834M399.584 241.75H479.501M399.584 241.75V161.834M479.501 241.75H559.417M479.501 241.75V161.834M559.417 241.75H639.334M559.417 241.75V161.834M639.334 241.75H719.251M639.334 241.75V161.834M719.251 241.75H799.168M719.251 241.75V161.834M799.168 241.75H879.084M799.168 241.75V161.834M879.084 241.75H959.001M879.084 241.75V161.834M959.001 241.75H1038.92M959.001 241.75V161.834M1038.92 241.75H1118.83M1038.92 241.75V161.834M1118.83 241.75H1198.75M1118.83 241.75V161.834M1198.75 241.75H1278.67M1198.75 241.75V161.834M1278.67 241.75H1358.58M1278.67 241.75V161.834M1358.58 241.75H1438.5M1358.58 241.75V161.834M1438.5 241.75H1440M1438.5 241.75V161.834M1.49844 161.834H79.9168M79.9168 161.834H159.834M79.9168 161.834V81.9168M159.834 161.834H239.75M159.834 161.834V81.9168M239.75 161.834H319.667M239.75 161.834V81.9168M319.667 161.834H399.584M319.667 161.834V81.9168M399.584 161.834H479.501M399.584 161.834V81.9168M479.501 161.834H559.417M479.501 161.834V81.9168M559.417 161.834H639.334M559.417 161.834V81.9168M639.334 161.834H719.251M639.334 161.834V81.9168M719.251 161.834H799.168M719.251 161.834V81.9168M799.168 161.834H879.084M799.168 161.834V81.9168M879.084 161.834H959.001M879.084 161.834V81.9168M959.001 161.834H1038.92M959.001 161.834V81.9168M1038.92 161.834H1118.83M1038.92 161.834V81.9168M1118.83 161.834H1198.75M1118.83 161.834V81.9168M1198.75 161.834H1278.67M1198.75 161.834V81.9168M1278.67 161.834H1358.58M1278.67 161.834V81.9168M1358.58 161.834H1438.5M1358.58 161.834V81.9168M1438.5 161.834H1440M1438.5 161.834V81.9168M1.49844 81.9168H79.9168M79.9168 81.9168H159.834M79.9168 81.9168V3.49844M159.834 81.9168H239.75M159.834 81.9168V3.49844M239.75 81.9168H319.667M239.75 81.9168V3.49844M319.667 81.9168H399.584M319.667 81.9168V3.49844M399.584 81.9168H479.501M399.584 81.9168V3.49844M479.501 81.9168H559.417M479.501 81.9168V3.49844M559.417 81.9168H639.334M559.417 81.9168V3.49844M639.334 81.9168H719.251M639.334 81.9168V3.49844M719.251 81.9168H799.168M719.251 81.9168V3.49844M799.168 81.9168H879.084M799.168 81.9168V3.49844M879.084 81.9168H959.001M879.084 81.9168V3.49844M959.001 81.9168H1038.92M959.001 81.9168V3.49844M1038.92 81.9168H1118.83M1038.92 81.9168V3.49844M1118.83 81.9168H1198.75M1118.83 81.9168V3.49844M1198.75 81.9168H1278.67M1198.75 81.9168V3.49844M1278.67 81.9168H1358.58M1278.67 81.9168V3.49844M1358.58 81.9168H1438.5M1358.58 81.9168V3.49844M1438.5 81.9168H1440M1438.5 81.9168V3.49844M1.49844 2H1440M0 1442V3.49844M1.49844 2878.5H79.9168M79.9168 2878.5H159.834M79.9168 2878.5V2880M79.9168 2878.5V2798.58M159.834 2878.5H239.75M159.834 2878.5V2880M159.834 2878.5V2798.58M239.75 2878.5H319.667M239.75 2878.5V2880M239.75 2878.5V2798.58M319.667 2878.5H399.584M319.667 2878.5V2880M319.667 2878.5V2798.58M399.584 2878.5H479.501M399.584 2878.5V2880M399.584 2878.5V2798.58M479.501 2878.5H559.417M479.501 2878.5V2880M479.501 2878.5V2798.58M559.417 2878.5H639.334M559.417 2878.5V2880M559.417 2878.5V2798.58M639.334 2878.5H719.251M639.334 2878.5V2880M639.334 2878.5V2798.58M719.251 2878.5H799.168M719.251 2878.5V2880M719.251 2878.5V2798.58M799.168 2878.5H879.084M799.168 2878.5V2880M799.168 2878.5V2798.58M879.084 2878.5H959.001M879.084 2878.5V2880M879.084 2878.5V2798.58M959.001 2878.5H1038.92M959.001 2878.5V2880M959.001 2878.5V2798.58M1038.92 2878.5H1118.83M1038.92 2878.5V2880M1038.92 2878.5V2798.58M1118.83 2878.5H1198.75M1118.83 2878.5V2880M1118.83 2878.5V2798.58M1198.75 2878.5H1278.67M1198.75 2878.5V2880M1198.75 2878.5V2798.58M1278.67 2878.5H1358.58M1278.67 2878.5V2880M1278.67 2878.5V2798.58M1358.58 2878.5H1438.5M1358.58 2878.5V2880M1358.58 2878.5V2798.58M1438.5 2878.5H1440M1438.5 2878.5V2880M1438.5 2878.5V2798.58M1.49844 2798.58H79.9168M79.9168 2798.58H159.834M79.9168 2798.58V2718.67M159.834 2798.58H239.75M159.834 2798.58V2718.67M239.75 2798.58H319.667M239.75 2798.58V2718.67M319.667 2798.58H399.584M319.667 2798.58V2718.67M399.584 2798.58H479.501M399.584 2798.58V2718.67M479.501 2798.58H559.417M479.501 2798.58V2718.67M559.417 2798.58H639.334M559.417 2798.58V2718.67M639.334 2798.58H719.251M639.334 2798.58V2718.67M719.251 2798.58H799.168M719.251 2798.58V2718.67M799.168 2798.58H879.084M799.168 2798.58V2718.67M879.084 2798.58H959.001M879.084 2798.58V2718.67M959.001 2798.58H1038.92M959.001 2798.58V2718.67M1038.92 2798.58H1118.83M1038.92 2798.58V2718.67M1118.83 2798.58H1198.75M1118.83 2798.58V2718.67M1198.75 2798.58H1278.67M1198.75 2798.58V2718.67M1278.67 2798.58H1358.58M1278.67 2798.58V2718.67M1358.58 2798.58H1438.5M1358.58 2798.58V2718.67M1438.5 2798.58H1440M1438.5 2798.58V2718.67M1.49844 2718.67H79.9168M79.9168 2718.67H159.834M79.9168 2718.67V2638.75M159.834 2718.67H239.75M159.834 2718.67V2638.75M239.75 2718.67H319.667M239.75 2718.67V2638.75M319.667 2718.67H399.584M319.667 2718.67V2638.75M399.584 2718.67H479.501M399.584 2718.67V2638.75M479.501 2718.67H559.417M479.501 2718.67V2638.75M559.417 2718.67H639.334M559.417 2718.67V2638.75M639.334 2718.67H719.251M639.334 2718.67V2638.75M719.251 2718.67H799.168M719.251 2718.67V2638.75M799.168 2718.67H879.084M799.168 2718.67V2638.75M879.084 2718.67H959.001M879.084 2718.67V2638.75M959.001 2718.67H1038.92M959.001 2718.67V2638.75M1038.92 2718.67H1118.83M1038.92 2718.67V2638.75M1118.83 2718.67H1198.75M1118.83 2718.67V2638.75M1198.75 2718.67H1278.67M1198.75 2718.67V2638.75M1278.67 2718.67H1358.58M1278.67 2718.67V2638.75M1358.58 2718.67H1438.5M1358.58 2718.67V2638.75M1438.5 2718.67H1440M1438.5 2718.67V2638.75M1.49844 2638.75H79.9168M79.9168 2638.75H159.834M79.9168 2638.75V2558.83M159.834 2638.75H239.75M159.834 2638.75V2558.83M239.75 2638.75H319.667M239.75 2638.75V2558.83M319.667 2638.75H399.584M319.667 2638.75V2558.83M399.584 2638.75H479.501M399.584 2638.75V2558.83M479.501 2638.75H559.417M479.501 2638.75V2558.83M559.417 2638.75H639.334M559.417 2638.75V2558.83M639.334 2638.75H719.251M639.334 2638.75V2558.83M719.251 2638.75H799.168M719.251 2638.75V2558.83M799.168 2638.75H879.084M799.168 2638.75V2558.83M879.084 2638.75H959.001M879.084 2638.75V2558.83M959.001 2638.75H1038.92M959.001 2638.75V2558.83M1038.92 2638.75H1118.83M1038.92 2638.75V2558.83M1118.83 2638.75H1198.75M1118.83 2638.75V2558.83M1198.75 2638.75H1278.67M1198.75 2638.75V2558.83M1278.67 2638.75H1358.58M1278.67 2638.75V2558.83M1358.58 2638.75H1438.5M1358.58 2638.75V2558.83M1438.5 2638.75H1440M1438.5 2638.75V2558.83M1.49844 2558.83H79.9168M79.9168 2558.83H159.834M79.9168 2558.83V2478.92M159.834 2558.83H239.75M159.834 2558.83V2478.92M239.75 2558.83H319.667M239.75 2558.83V2478.92M319.667 2558.83H399.584M319.667 2558.83V2478.92M399.584 2558.83H479.501M399.584 2558.83V2478.92M479.501 2558.83H559.417M479.501 2558.83V2478.92M559.417 2558.83H639.334M559.417 2558.83V2478.92M639.334 2558.83H719.251M639.334 2558.83V2478.92M719.251 2558.83H799.168M719.251 2558.83V2478.92M799.168 2558.83H879.084M799.168 2558.83V2478.92M879.084 2558.83H959.001M879.084 2558.83V2478.92M959.001 2558.83H1038.92M959.001 2558.83V2478.92M1038.92 2558.83H1118.83M1038.92 2558.83V2478.92M1118.83 2558.83H1198.75M1118.83 2558.83V2478.92M1198.75 2558.83H1278.67M1198.75 2558.83V2478.92M1278.67 2558.83H1358.58M1278.67 2558.83V2478.92M1358.58 2558.83H1438.5M1358.58 2558.83V2478.92M1438.5 2558.83H1440M1438.5 2558.83V2478.92M1.49844 2478.92H79.9168M79.9168 2478.92H159.834M79.9168 2478.92V2399M159.834 2478.92H239.75M159.834 2478.92V2399M239.75 2478.92H319.667M239.75 2478.92V2399M319.667 2478.92H399.584M319.667 2478.92V2399M399.584 2478.92H479.501M399.584 2478.92V2399M479.501 2478.92H559.417M479.501 2478.92V2399M559.417 2478.92H639.334M559.417 2478.92V2399M639.334 2478.92H719.251M639.334 2478.92V2399M719.251 2478.92H799.168M719.251 2478.92V2399M799.168 2478.92H879.084M799.168 2478.92V2399M879.084 2478.92H959.001M879.084 2478.92V2399M959.001 2478.92H1038.92M959.001 2478.92V2399M1038.92 2478.92H1118.83M1038.92 2478.92V2399M1118.83 2478.92H1198.75M1118.83 2478.92V2399M1198.75 2478.92H1278.67M1198.75 2478.92V2399M1278.67 2478.92H1358.58M1278.67 2478.92V2399M1358.58 2478.92H1438.5M1358.58 2478.92V2399M1438.5 2478.92H1440M1438.5 2478.92V2399M1.49844 2399H79.9168M79.9168 2399H159.834M79.9168 2399V2319.08M159.834 2399H239.75M159.834 2399V2319.08M239.75 2399H319.667M239.75 2399V2319.08M319.667 2399H399.584M319.667 2399V2319.08M399.584 2399H479.501M399.584 2399V2319.08M479.501 2399H559.417M479.501 2399V2319.08M559.417 2399H639.334M559.417 2399V2319.08M639.334 2399H719.251M639.334 2399V2319.08M719.251 2399H799.168M719.251 2399V2319.08M799.168 2399H879.084M799.168 2399V2319.08M879.084 2399H959.001M879.084 2399V2319.08M959.001 2399H1038.92M959.001 2399V2319.08M1038.92 2399H1118.83M1038.92 2399V2319.08M1118.83 2399H1198.75M1118.83 2399V2319.08M1198.75 2399H1278.67M1198.75 2399V2319.08M1278.67 2399H1358.58M1278.67 2399V2319.08M1358.58 2399H1438.5M1358.58 2399V2319.08M1438.5 2399H1440M1438.5 2399V2319.08M1.49844 2319.08H79.9168M79.9168 2319.08H159.834M79.9168 2319.08V2239.17M159.834 2319.08H239.75M159.834 2319.08V2239.17M239.75 2319.08H319.667M239.75 2319.08V2239.17M319.667 2319.08H399.584M319.667 2319.08V2239.17M399.584 2319.08H479.501M399.584 2319.08V2239.17M479.501 2319.08H559.417M479.501 2319.08V2239.17M559.417 2319.08H639.334M559.417 2319.08V2239.17M639.334 2319.08H719.251M639.334 2319.08V2239.17M719.251 2319.08H799.168M719.251 2319.08V2239.17M799.168 2319.08H879.084M799.168 2319.08V2239.17M879.084 2319.08H959.001M879.084 2319.08V2239.17M959.001 2319.08H1038.92M959.001 2319.08V2239.17M1038.92 2319.08H1118.83M1038.92 2319.08V2239.17M1118.83 2319.08H1198.75M1118.83 2319.08V2239.17M1198.75 2319.08H1278.67M1198.75 2319.08V2239.17M1278.67 2319.08H1358.58M1278.67 2319.08V2239.17M1358.58 2319.08H1438.5M1358.58 2319.08V2239.17M1438.5 2319.08H1440M1438.5 2319.08V2239.17M1.49844 2239.17H79.9168M79.9168 2239.17H159.834M79.9168 2239.17V2159.25M159.834 2239.17H239.75M159.834 2239.17V2159.25M239.75 2239.17H319.667M239.75 2239.17V2159.25M319.667 2239.17H399.584M319.667 2239.17V2159.25M399.584 2239.17H479.501M399.584 2239.17V2159.25M479.501 2239.17H559.417M479.501 2239.17V2159.25M559.417 2239.17H639.334M559.417 2239.17V2159.25M639.334 2239.17H719.251M639.334 2239.17V2159.25M719.251 2239.17H799.168M719.251 2239.17V2159.25M799.168 2239.17H879.084M799.168 2239.17V2159.25M879.084 2239.17H959.001M879.084 2239.17V2159.25M959.001 2239.17H1038.92M959.001 2239.17V2159.25M1038.92 2239.17H1118.83M1038.92 2239.17V2159.25M1118.83 2239.17H1198.75M1118.83 2239.17V2159.25M1198.75 2239.17H1278.67M1198.75 2239.17V2159.25M1278.67 2239.17H1358.58M1278.67 2239.17V2159.25M1358.58 2239.17H1438.5M1358.58 2239.17V2159.25M1438.5 2239.17H1440M1438.5 2239.17V2159.25M1.49844 2159.25H79.9168M79.9168 2159.25H159.834M79.9168 2159.25V2079.33M159.834 2159.25H239.75M159.834 2159.25V2079.33M239.75 2159.25H319.667M239.75 2159.25V2079.33M319.667 2159.25H399.584M319.667 2159.25V2079.33M399.584 2159.25H479.501M399.584 2159.25V2079.33M479.501 2159.25H559.417M479.501 2159.25V2079.33M559.417 2159.25H639.334M559.417 2159.25V2079.33M639.334 2159.25H719.251M639.334 2159.25V2079.33M719.251 2159.25H799.168M719.251 2159.25V2079.33M799.168 2159.25H879.084M799.168 2159.25V2079.33M879.084 2159.25H959.001M879.084 2159.25V2079.33M959.001 2159.25H1038.92M959.001 2159.25V2079.33M1038.92 2159.25H1118.83M1038.92 2159.25V2079.33M1118.83 2159.25H1198.75M1118.83 2159.25V2079.33M1198.75 2159.25H1278.67M1198.75 2159.25V2079.33M1278.67 2159.25H1358.58M1278.67 2159.25V2079.33M1358.58 2159.25H1438.5M1358.58 2159.25V2079.33M1438.5 2159.25H1440M1438.5 2159.25V2079.33M1.49844 2079.33H79.9168M79.9168 2079.33H159.834M79.9168 2079.33V1999.42M159.834 2079.33H239.75M159.834 2079.33V1999.42M239.75 2079.33H319.667M239.75 2079.33V1999.42M319.667 2079.33H399.584M319.667 2079.33V1999.42M399.584 2079.33H479.501M399.584 2079.33V1999.42M479.501 2079.33H559.417M479.501 2079.33V1999.42M559.417 2079.33H639.334M559.417 2079.33V1999.42M639.334 2079.33H719.251M639.334 2079.33V1999.42M719.251 2079.33H799.168M719.251 2079.33V1999.42M799.168 2079.33H879.084M799.168 2079.33V1999.42M879.084 2079.33H959.001M879.084 2079.33V1999.42M959.001 2079.33H1038.92M959.001 2079.33V1999.42M1038.92 2079.33H1118.83M1038.92 2079.33V1999.42M1118.83 2079.33H1198.75M1118.83 2079.33V1999.42M1198.75 2079.33H1278.67M1198.75 2079.33V1999.42M1278.67 2079.33H1358.58M1278.67 2079.33V1999.42M1358.58 2079.33H1438.5M1358.58 2079.33V1999.42M1438.5 2079.33H1440M1438.5 2079.33V1999.42M1.49844 1999.42H79.9168M79.9168 1999.42H159.834M79.9168 1999.42V1919.5M159.834 1999.42H239.75M159.834 1999.42V1919.5M239.75 1999.42H319.667M239.75 1999.42V1919.5M319.667 1999.42H399.584M319.667 1999.42V1919.5M399.584 1999.42H479.501M399.584 1999.42V1919.5M479.501 1999.42H559.417M479.501 1999.42V1919.5M559.417 1999.42H639.334M559.417 1999.42V1919.5M639.334 1999.42H719.251M639.334 1999.42V1919.5M719.251 1999.42H799.168M719.251 1999.42V1919.5M799.168 1999.42H879.084M799.168 1999.42V1919.5M879.084 1999.42H959.001M879.084 1999.42V1919.5M959.001 1999.42H1038.92M959.001 1999.42V1919.5M1038.92 1999.42H1118.83M1038.92 1999.42V1919.5M1118.83 1999.42H1198.75M1118.83 1999.42V1919.5M1198.75 1999.42H1278.67M1198.75 1999.42V1919.5M1278.67 1999.42H1358.58M1278.67 1999.42V1919.5M1358.58 1999.42H1438.5M1358.58 1999.42V1919.5M1438.5 1999.42H1440M1438.5 1999.42V1919.5M1.49844 1919.5H79.9168M79.9168 1919.5H159.834M79.9168 1919.5V1839.58M159.834 1919.5H239.75M159.834 1919.5V1839.58M239.75 1919.5H319.667M239.75 1919.5V1839.58M319.667 1919.5H399.584M319.667 1919.5V1839.58M399.584 1919.5H479.501M399.584 1919.5V1839.58M479.501 1919.5H559.417M479.501 1919.5V1839.58M559.417 1919.5H639.334M559.417 1919.5V1839.58M639.334 1919.5H719.251M639.334 1919.5V1839.58M719.251 1919.5H799.168M719.251 1919.5V1839.58M799.168 1919.5H879.084M799.168 1919.5V1839.58M879.084 1919.5H959.001M879.084 1919.5V1839.58M959.001 1919.5H1038.92M959.001 1919.5V1839.58M1038.92 1919.5H1118.83M1038.92 1919.5V1839.58M1118.83 1919.5H1198.75M1118.83 1919.5V1839.58M1198.75 1919.5H1278.67M1198.75 1919.5V1839.58M1278.67 1919.5H1358.58M1278.67 1919.5V1839.58M1358.58 1919.5H1438.5M1358.58 1919.5V1839.58M1438.5 1919.5H1440M1438.5 1919.5V1839.58M1.49844 1839.58H79.9168M79.9168 1839.58H159.834M79.9168 1839.58V1759.67M159.834 1839.58H239.75M159.834 1839.58V1759.67M239.75 1839.58H319.667M239.75 1839.58V1759.67M319.667 1839.58H399.584M319.667 1839.58V1759.67M399.584 1839.58H479.501M399.584 1839.58V1759.67M479.501 1839.58H559.417M479.501 1839.58V1759.67M559.417 1839.58H639.334M559.417 1839.58V1759.67M639.334 1839.58H719.251M639.334 1839.58V1759.67M719.251 1839.58H799.168M719.251 1839.58V1759.67M799.168 1839.58H879.084M799.168 1839.58V1759.67M879.084 1839.58H959.001M879.084 1839.58V1759.67M959.001 1839.58H1038.92M959.001 1839.58V1759.67M1038.92 1839.58H1118.83M1038.92 1839.58V1759.67M1118.83 1839.58H1198.75M1118.83 1839.58V1759.67M1198.75 1839.58H1278.67M1198.75 1839.58V1759.67M1278.67 1839.58H1358.58M1278.67 1839.58V1759.67M1358.58 1839.58H1438.5M1358.58 1839.58V1759.67M1438.5 1839.58H1440M1438.5 1839.58V1759.67M1.49844 1759.67H79.9168M79.9168 1759.67H159.834M79.9168 1759.67V1679.75M159.834 1759.67H239.75M159.834 1759.67V1679.75M239.75 1759.67H319.667M239.75 1759.67V1679.75M319.667 1759.67H399.584M319.667 1759.67V1679.75M399.584 1759.67H479.501M399.584 1759.67V1679.75M479.501 1759.67H559.417M479.501 1759.67V1679.75M559.417 1759.67H639.334M559.417 1759.67V1679.75M639.334 1759.67H719.251M639.334 1759.67V1679.75M719.251 1759.67H799.168M719.251 1759.67V1679.75M799.168 1759.67H879.084M799.168 1759.67V1679.75M879.084 1759.67H959.001M879.084 1759.67V1679.75M959.001 1759.67H1038.92M959.001 1759.67V1679.75M1038.92 1759.67H1118.83M1038.92 1759.67V1679.75M1118.83 1759.67H1198.75M1118.83 1759.67V1679.75M1198.75 1759.67H1278.67M1198.75 1759.67V1679.75M1278.67 1759.67H1358.58M1278.67 1759.67V1679.75M1358.58 1759.67H1438.5M1358.58 1759.67V1679.75M1438.5 1759.67H1440M1438.5 1759.67V1679.75M1.49844 1679.75H79.9168M79.9168 1679.75H159.834M79.9168 1679.75V1599.83M159.834 1679.75H239.75M159.834 1679.75V1599.83M239.75 1679.75H319.667M239.75 1679.75V1599.83M319.667 1679.75H399.584M319.667 1679.75V1599.83M399.584 1679.75H479.501M399.584 1679.75V1599.83M479.501 1679.75H559.417M479.501 1679.75V1599.83M559.417 1679.75H639.334M559.417 1679.75V1599.83M639.334 1679.75H719.251M639.334 1679.75V1599.83M719.251 1679.75H799.168M719.251 1679.75V1599.83M799.168 1679.75H879.084M799.168 1679.75V1599.83M879.084 1679.75H959.001M879.084 1679.75V1599.83M959.001 1679.75H1038.92M959.001 1679.75V1599.83M1038.92 1679.75H1118.83M1038.92 1679.75V1599.83M1118.83 1679.75H1198.75M1118.83 1679.75V1599.83M1198.75 1679.75H1278.67M1198.75 1679.75V1599.83M1278.67 1679.75H1358.58M1278.67 1679.75V1599.83M1358.58 1679.75H1438.5M1358.58 1679.75V1599.83M1438.5 1679.75H1440M1438.5 1679.75V1599.83M1.49844 1599.83H79.9168M79.9168 1599.83H159.834M79.9168 1599.83V1519.92M159.834 1599.83H239.75M159.834 1599.83V1519.92M239.75 1599.83H319.667M239.75 1599.83V1519.92M319.667 1599.83H399.584M319.667 1599.83V1519.92M399.584 1599.83H479.501M399.584 1599.83V1519.92M479.501 1599.83H559.417M479.501 1599.83V1519.92M559.417 1599.83H639.334M559.417 1599.83V1519.92M639.334 1599.83H719.251M639.334 1599.83V1519.92M719.251 1599.83H799.168M719.251 1599.83V1519.92M799.168 1599.83H879.084M799.168 1599.83V1519.92M879.084 1599.83H959.001M879.084 1599.83V1519.92M959.001 1599.83H1038.92M959.001 1599.83V1519.92M1038.92 1599.83H1118.83M1038.92 1599.83V1519.92M1118.83 1599.83H1198.75M1118.83 1599.83V1519.92M1198.75 1599.83H1278.67M1198.75 1599.83V1519.92M1278.67 1599.83H1358.58M1278.67 1599.83V1519.92M1358.58 1599.83H1438.5M1358.58 1599.83V1519.92M1438.5 1599.83H1440M1438.5 1599.83V1519.92M1.49844 1519.92H79.9168M79.9168 1519.92H159.834M79.9168 1519.92V1441.5M159.834 1519.92H239.75M159.834 1519.92V1441.5M239.75 1519.92H319.667M239.75 1519.92V1441.5M319.667 1519.92H399.584M319.667 1519.92V1441.5M399.584 1519.92H479.501M399.584 1519.92V1441.5M479.501 1519.92H559.417M479.501 1519.92V1441.5M559.417 1519.92H639.334M559.417 1519.92V1441.5M639.334 1519.92H719.251M639.334 1519.92V1441.5M719.251 1519.92H799.168M719.251 1519.92V1441.5M799.168 1519.92H879.084M799.168 1519.92V1441.5M879.084 1519.92H959.001M879.084 1519.92V1441.5M959.001 1519.92H1038.92M959.001 1519.92V1441.5M1038.92 1519.92H1118.83M1038.92 1519.92V1441.5M1118.83 1519.92H1198.75M1118.83 1519.92V1441.5M1198.75 1519.92H1278.67M1198.75 1519.92V1441.5M1278.67 1519.92H1358.58M1278.67 1519.92V1441.5M1358.58 1519.92H1438.5M1358.58 1519.92V1441.5M1438.5 1519.92H1440M1438.5 1519.92V1441.5M1.49844 1440H1440M0 2880V1441.5M1.49844 4317.5H79.9168M79.9168 4317.5H159.834M79.9168 4317.5V4319M79.9168 4317.5V4237.58M159.834 4317.5H239.75M159.834 4317.5V4319M159.834 4317.5V4237.58M239.75 4317.5H319.667M239.75 4317.5V4319M239.75 4317.5V4237.58M319.667 4317.5H399.584M319.667 4317.5V4319M319.667 4317.5V4237.58M399.584 4317.5H479.501M399.584 4317.5V4319M399.584 4317.5V4237.58M479.501 4317.5H559.417M479.501 4317.5V4319M479.501 4317.5V4237.58M559.417 4317.5H639.334M559.417 4317.5V4319M559.417 4317.5V4237.58M639.334 4317.5H719.251M639.334 4317.5V4319M639.334 4317.5V4237.58M719.251 4317.5H799.168M719.251 4317.5V4319M719.251 4317.5V4237.58M799.168 4317.5H879.084M799.168 4317.5V4319M799.168 4317.5V4237.58M879.084 4317.5H959.001M879.084 4317.5V4319M879.084 4317.5V4237.58M959.001 4317.5H1038.92M959.001 4317.5V4319M959.001 4317.5V4237.58M1038.92 4317.5H1118.83M1038.92 4317.5V4319M1038.92 4317.5V4237.58M1118.83 4317.5H1198.75M1118.83 4317.5V4319M1118.83 4317.5V4237.58M1198.75 4317.5H1278.67M1198.75 4317.5V4319M1198.75 4317.5V4237.58M1278.67 4317.5H1358.58M1278.67 4317.5V4319M1278.67 4317.5V4237.58M1358.58 4317.5H1438.5M1358.58 4317.5V4319M1358.58 4317.5V4237.58M1438.5 4317.5H1440M1438.5 4317.5V4319M1438.5 4317.5V4237.58M1.49844 4237.58H79.9168M79.9168 4237.58H159.834M79.9168 4237.58V4157.67M159.834 4237.58H239.75M159.834 4237.58V4157.67M239.75 4237.58H319.667M239.75 4237.58V4157.67M319.667 4237.58H399.584M319.667 4237.58V4157.67M399.584 4237.58H479.501M399.584 4237.58V4157.67M479.501 4237.58H559.417M479.501 4237.58V4157.67M559.417 4237.58H639.334M559.417 4237.58V4157.67M639.334 4237.58H719.251M639.334 4237.58V4157.67M719.251 4237.58H799.168M719.251 4237.58V4157.67M799.168 4237.58H879.084M799.168 4237.58V4157.67M879.084 4237.58H959.001M879.084 4237.58V4157.67M959.001 4237.58H1038.92M959.001 4237.58V4157.67M1038.92 4237.58H1118.83M1038.92 4237.58V4157.67M1118.83 4237.58H1198.75M1118.83 4237.58V4157.67M1198.75 4237.58H1278.67M1198.75 4237.58V4157.67M1278.67 4237.58H1358.58M1278.67 4237.58V4157.67M1358.58 4237.58H1438.5M1358.58 4237.58V4157.67M1438.5 4237.58H1440M1438.5 4237.58V4157.67M1.49844 4157.67H79.9168M79.9168 4157.67H159.834M79.9168 4157.67V4077.75M159.834 4157.67H239.75M159.834 4157.67V4077.75M239.75 4157.67H319.667M239.75 4157.67V4077.75M319.667 4157.67H399.584M319.667 4157.67V4077.75M399.584 4157.67H479.501M399.584 4157.67V4077.75M479.501 4157.67H559.417M479.501 4157.67V4077.75M559.417 4157.67H639.334M559.417 4157.67V4077.75M639.334 4157.67H719.251M639.334 4157.67V4077.75M719.251 4157.67H799.168M719.251 4157.67V4077.75M799.168 4157.67H879.084M799.168 4157.67V4077.75M879.084 4157.67H959.001M879.084 4157.67V4077.75M959.001 4157.67H1038.92M959.001 4157.67V4077.75M1038.92 4157.67H1118.83M1038.92 4157.67V4077.75M1118.83 4157.67H1198.75M1118.83 4157.67V4077.75M1198.75 4157.67H1278.67M1198.75 4157.67V4077.75M1278.67 4157.67H1358.58M1278.67 4157.67V4077.75M1358.58 4157.67H1438.5M1358.58 4157.67V4077.75M1438.5 4157.67H1440M1438.5 4157.67V4077.75M1.49844 4077.75H79.9168M79.9168 4077.75H159.834M79.9168 4077.75V3997.83M159.834 4077.75H239.75M159.834 4077.75V3997.83M239.75 4077.75H319.667M239.75 4077.75V3997.83M319.667 4077.75H399.584M319.667 4077.75V3997.83M399.584 4077.75H479.501M399.584 4077.75V3997.83M479.501 4077.75H559.417M479.501 4077.75V3997.83M559.417 4077.75H639.334M559.417 4077.75V3997.83M639.334 4077.75H719.251M639.334 4077.75V3997.83M719.251 4077.75H799.168M719.251 4077.75V3997.83M799.168 4077.75H879.084M799.168 4077.75V3997.83M879.084 4077.75H959.001M879.084 4077.75V3997.83M959.001 4077.75H1038.92M959.001 4077.75V3997.83M1038.92 4077.75H1118.83M1038.92 4077.75V3997.83M1118.83 4077.75H1198.75M1118.83 4077.75V3997.83M1198.75 4077.75H1278.67M1198.75 4077.75V3997.83M1278.67 4077.75H1358.58M1278.67 4077.75V3997.83M1358.58 4077.75H1438.5M1358.58 4077.75V3997.83M1438.5 4077.75H1440M1438.5 4077.75V3997.83M1.49844 3997.83H79.9168M79.9168 3997.83H159.834M79.9168 3997.83V3917.92M159.834 3997.83H239.75M159.834 3997.83V3917.92M239.75 3997.83H319.667M239.75 3997.83V3917.92M319.667 3997.83H399.584M319.667 3997.83V3917.92M399.584 3997.83H479.501M399.584 3997.83V3917.92M479.501 3997.83H559.417M479.501 3997.83V3917.92M559.417 3997.83H639.334M559.417 3997.83V3917.92M639.334 3997.83H719.251M639.334 3997.83V3917.92M719.251 3997.83H799.168M719.251 3997.83V3917.92M799.168 3997.83H879.084M799.168 3997.83V3917.92M879.084 3997.83H959.001M879.084 3997.83V3917.92M959.001 3997.83H1038.92M959.001 3997.83V3917.92M1038.92 3997.83H1118.83M1038.92 3997.83V3917.92M1118.83 3997.83H1198.75M1118.83 3997.83V3917.92M1198.75 3997.83H1278.67M1198.75 3997.83V3917.92M1278.67 3997.83H1358.58M1278.67 3997.83V3917.92M1358.58 3997.83H1438.5M1358.58 3997.83V3917.92M1438.5 3997.83H1440M1438.5 3997.83V3917.92M1.49844 3917.92H79.9168M79.9168 3917.92H159.834M79.9168 3917.92V3838M159.834 3917.92H239.75M159.834 3917.92V3838M239.75 3917.92H319.667M239.75 3917.92V3838M319.667 3917.92H399.584M319.667 3917.92V3838M399.584 3917.92H479.501M399.584 3917.92V3838M479.501 3917.92H559.417M479.501 3917.92V3838M559.417 3917.92H639.334M559.417 3917.92V3838M639.334 3917.92H719.251M639.334 3917.92V3838M719.251 3917.92H799.168M719.251 3917.92V3838M799.168 3917.92H879.084M799.168 3917.92V3838M879.084 3917.92H959.001M879.084 3917.92V3838M959.001 3917.92H1038.92M959.001 3917.92V3838M1038.92 3917.92H1118.83M1038.92 3917.92V3838M1118.83 3917.92H1198.75M1118.83 3917.92V3838M1198.75 3917.92H1278.67M1198.75 3917.92V3838M1278.67 3917.92H1358.58M1278.67 3917.92V3838M1358.58 3917.92H1438.5M1358.58 3917.92V3838M1438.5 3917.92H1440M1438.5 3917.92V3838M1.49844 3838H79.9168M79.9168 3838H159.834M79.9168 3838V3758.08M159.834 3838H239.75M159.834 3838V3758.08M239.75 3838H319.667M239.75 3838V3758.08M319.667 3838H399.584M319.667 3838V3758.08M399.584 3838H479.501M399.584 3838V3758.08M479.501 3838H559.417M479.501 3838V3758.08M559.417 3838H639.334M559.417 3838V3758.08M639.334 3838H719.251M639.334 3838V3758.08M719.251 3838H799.168M719.251 3838V3758.08M799.168 3838H879.084M799.168 3838V3758.08M879.084 3838H959.001M879.084 3838V3758.08M959.001 3838H1038.92M959.001 3838V3758.08M1038.92 3838H1118.83M1038.92 3838V3758.08M1118.83 3838H1198.75M1118.83 3838V3758.08M1198.75 3838H1278.67M1198.75 3838V3758.08M1278.67 3838H1358.58M1278.67 3838V3758.08M1358.58 3838H1438.5M1358.58 3838V3758.08M1438.5 3838H1440M1438.5 3838V3758.08M1.49844 3758.08H79.9168M79.9168 3758.08H159.834M79.9168 3758.08V3678.17M159.834 3758.08H239.75M159.834 3758.08V3678.17M239.75 3758.08H319.667M239.75 3758.08V3678.17M319.667 3758.08H399.584M319.667 3758.08V3678.17M399.584 3758.08H479.501M399.584 3758.08V3678.17M479.501 3758.08H559.417M479.501 3758.08V3678.17M559.417 3758.08H639.334M559.417 3758.08V3678.17M639.334 3758.08H719.251M639.334 3758.08V3678.17M719.251 3758.08H799.168M719.251 3758.08V3678.17M799.168 3758.08H879.084M799.168 3758.08V3678.17M879.084 3758.08H959.001M879.084 3758.08V3678.17M959.001 3758.08H1038.92M959.001 3758.08V3678.17M1038.92 3758.08H1118.83M1038.92 3758.08V3678.17M1118.83 3758.08H1198.75M1118.83 3758.08V3678.17M1198.75 3758.08H1278.67M1198.75 3758.08V3678.17M1278.67 3758.08H1358.58M1278.67 3758.08V3678.17M1358.58 3758.08H1438.5M1358.58 3758.08V3678.17M1438.5 3758.08H1440M1438.5 3758.08V3678.17M1.49844 3678.17H79.9168M79.9168 3678.17H159.834M79.9168 3678.17V3598.25M159.834 3678.17H239.75M159.834 3678.17V3598.25M239.75 3678.17H319.667M239.75 3678.17V3598.25M319.667 3678.17H399.584M319.667 3678.17V3598.25M399.584 3678.17H479.501M399.584 3678.17V3598.25M479.501 3678.17H559.417M479.501 3678.17V3598.25M559.417 3678.17H639.334M559.417 3678.17V3598.25M639.334 3678.17H719.251M639.334 3678.17V3598.25M719.251 3678.17H799.168M719.251 3678.17V3598.25M799.168 3678.17H879.084M799.168 3678.17V3598.25M879.084 3678.17H959.001M879.084 3678.17V3598.25M959.001 3678.17H1038.92M959.001 3678.17V3598.25M1038.92 3678.17H1118.83M1038.92 3678.17V3598.25M1118.83 3678.17H1198.75M1118.83 3678.17V3598.25M1198.75 3678.17H1278.67M1198.75 3678.17V3598.25M1278.67 3678.17H1358.58M1278.67 3678.17V3598.25M1358.58 3678.17H1438.5M1358.58 3678.17V3598.25M1438.5 3678.17H1440M1438.5 3678.17V3598.25M1.49844 3598.25H79.9168M79.9168 3598.25H159.834M79.9168 3598.25V3518.33M159.834 3598.25H239.75M159.834 3598.25V3518.33M239.75 3598.25H319.667M239.75 3598.25V3518.33M319.667 3598.25H399.584M319.667 3598.25V3518.33M399.584 3598.25H479.501M399.584 3598.25V3518.33M479.501 3598.25H559.417M479.501 3598.25V3518.33M559.417 3598.25H639.334M559.417 3598.25V3518.33M639.334 3598.25H719.251M639.334 3598.25V3518.33M719.251 3598.25H799.168M719.251 3598.25V3518.33M799.168 3598.25H879.084M799.168 3598.25V3518.33M879.084 3598.25H959.001M879.084 3598.25V3518.33M959.001 3598.25H1038.92M959.001 3598.25V3518.33M1038.92 3598.25H1118.83M1038.92 3598.25V3518.33M1118.83 3598.25H1198.75M1118.83 3598.25V3518.33M1198.75 3598.25H1278.67M1198.75 3598.25V3518.33M1278.67 3598.25H1358.58M1278.67 3598.25V3518.33M1358.58 3598.25H1438.5M1358.58 3598.25V3518.33M1438.5 3598.25H1440M1438.5 3598.25V3518.33M1.49844 3518.33H79.9168M79.9168 3518.33H159.834M79.9168 3518.33V3438.42M159.834 3518.33H239.75M159.834 3518.33V3438.42M239.75 3518.33H319.667M239.75 3518.33V3438.42M319.667 3518.33H399.584M319.667 3518.33V3438.42M399.584 3518.33H479.501M399.584 3518.33V3438.42M479.501 3518.33H559.417M479.501 3518.33V3438.42M559.417 3518.33H639.334M559.417 3518.33V3438.42M639.334 3518.33H719.251M639.334 3518.33V3438.42M719.251 3518.33H799.168M719.251 3518.33V3438.42M799.168 3518.33H879.084M799.168 3518.33V3438.42M879.084 3518.33H959.001M879.084 3518.33V3438.42M959.001 3518.33H1038.92M959.001 3518.33V3438.42M1038.92 3518.33H1118.83M1038.92 3518.33V3438.42M1118.83 3518.33H1198.75M1118.83 3518.33V3438.42M1198.75 3518.33H1278.67M1198.75 3518.33V3438.42M1278.67 3518.33H1358.58M1278.67 3518.33V3438.42M1358.58 3518.33H1438.5M1358.58 3518.33V3438.42M1438.5 3518.33H1440M1438.5 3518.33V3438.42M1.49844 3438.42H79.9168M79.9168 3438.42H159.834M79.9168 3438.42V3358.5M159.834 3438.42H239.75M159.834 3438.42V3358.5M239.75 3438.42H319.667M239.75 3438.42V3358.5M319.667 3438.42H399.584M319.667 3438.42V3358.5M399.584 3438.42H479.501M399.584 3438.42V3358.5M479.501 3438.42H559.417M479.501 3438.42V3358.5M559.417 3438.42H639.334M559.417 3438.42V3358.5M639.334 3438.42H719.251M639.334 3438.42V3358.5M719.251 3438.42H799.168M719.251 3438.42V3358.5M799.168 3438.42H879.084M799.168 3438.42V3358.5M879.084 3438.42H959.001M879.084 3438.42V3358.5M959.001 3438.42H1038.92M959.001 3438.42V3358.5M1038.92 3438.42H1118.83M1038.92 3438.42V3358.5M1118.83 3438.42H1198.75M1118.83 3438.42V3358.5M1198.75 3438.42H1278.67M1198.75 3438.42V3358.5M1278.67 3438.42H1358.58M1278.67 3438.42V3358.5M1358.58 3438.42H1438.5M1358.58 3438.42V3358.5M1438.5 3438.42H1440M1438.5 3438.42V3358.5M1.49844 3358.5H79.9168M79.9168 3358.5H159.834M79.9168 3358.5V3278.58M159.834 3358.5H239.75M159.834 3358.5V3278.58M239.75 3358.5H319.667M239.75 3358.5V3278.58M319.667 3358.5H399.584M319.667 3358.5V3278.58M399.584 3358.5H479.501M399.584 3358.5V3278.58M479.501 3358.5H559.417M479.501 3358.5V3278.58M559.417 3358.5H639.334M559.417 3358.5V3278.58M639.334 3358.5H719.251M639.334 3358.5V3278.58M719.251 3358.5H799.168M719.251 3358.5V3278.58M799.168 3358.5H879.084M799.168 3358.5V3278.58M879.084 3358.5H959.001M879.084 3358.5V3278.58M959.001 3358.5H1038.92M959.001 3358.5V3278.58M1038.92 3358.5H1118.83M1038.92 3358.5V3278.58M1118.83 3358.5H1198.75M1118.83 3358.5V3278.58M1198.75 3358.5H1278.67M1198.75 3358.5V3278.58M1278.67 3358.5H1358.58M1278.67 3358.5V3278.58M1358.58 3358.5H1438.5M1358.58 3358.5V3278.58M1438.5 3358.5H1440M1438.5 3358.5V3278.58M1.49844 3278.58H79.9168M79.9168 3278.58H159.834M79.9168 3278.58V3198.67M159.834 3278.58H239.75M159.834 3278.58V3198.67M239.75 3278.58H319.667M239.75 3278.58V3198.67M319.667 3278.58H399.584M319.667 3278.58V3198.67M399.584 3278.58H479.501M399.584 3278.58V3198.67M479.501 3278.58H559.417M479.501 3278.58V3198.67M559.417 3278.58H639.334M559.417 3278.58V3198.67M639.334 3278.58H719.251M639.334 3278.58V3198.67M719.251 3278.58H799.168M719.251 3278.58V3198.67M799.168 3278.58H879.084M799.168 3278.58V3198.67M879.084 3278.58H959.001M879.084 3278.58V3198.67M959.001 3278.58H1038.92M959.001 3278.58V3198.67M1038.92 3278.58H1118.83M1038.92 3278.58V3198.67M1118.83 3278.58H1198.75M1118.83 3278.58V3198.67M1198.75 3278.58H1278.67M1198.75 3278.58V3198.67M1278.67 3278.58H1358.58M1278.67 3278.58V3198.67M1358.58 3278.58H1438.5M1358.58 3278.58V3198.67M1438.5 3278.58H1440M1438.5 3278.58V3198.67M1.49844 3198.67H79.9168M79.9168 3198.67H159.834M79.9168 3198.67V3118.75M159.834 3198.67H239.75M159.834 3198.67V3118.75M239.75 3198.67H319.667M239.75 3198.67V3118.75M319.667 3198.67H399.584M319.667 3198.67V3118.75M399.584 3198.67H479.501M399.584 3198.67V3118.75M479.501 3198.67H559.417M479.501 3198.67V3118.75M559.417 3198.67H639.334M559.417 3198.67V3118.75M639.334 3198.67H719.251M639.334 3198.67V3118.75M719.251 3198.67H799.168M719.251 3198.67V3118.75M799.168 3198.67H879.084M799.168 3198.67V3118.75M879.084 3198.67H959.001M879.084 3198.67V3118.75M959.001 3198.67H1038.92M959.001 3198.67V3118.75M1038.92 3198.67H1118.83M1038.92 3198.67V3118.75M1118.83 3198.67H1198.75M1118.83 3198.67V3118.75M1198.75 3198.67H1278.67M1198.75 3198.67V3118.75M1278.67 3198.67H1358.58M1278.67 3198.67V3118.75M1358.58 3198.67H1438.5M1358.58 3198.67V3118.75M1438.5 3198.67H1440M1438.5 3198.67V3118.75M1.49844 3118.75H79.9168M79.9168 3118.75H159.834M79.9168 3118.75V3038.83M159.834 3118.75H239.75M159.834 3118.75V3038.83M239.75 3118.75H319.667M239.75 3118.75V3038.83M319.667 3118.75H399.584M319.667 3118.75V3038.83M399.584 3118.75H479.501M399.584 3118.75V3038.83M479.501 3118.75H559.417M479.501 3118.75V3038.83M559.417 3118.75H639.334M559.417 3118.75V3038.83M639.334 3118.75H719.251M639.334 3118.75V3038.83M719.251 3118.75H799.168M719.251 3118.75V3038.83M799.168 3118.75H879.084M799.168 3118.75V3038.83M879.084 3118.75H959.001M879.084 3118.75V3038.83M959.001 3118.75H1038.92M959.001 3118.75V3038.83M1038.92 3118.75H1118.83M1038.92 3118.75V3038.83M1118.83 3118.75H1198.75M1118.83 3118.75V3038.83M1198.75 3118.75H1278.67M1198.75 3118.75V3038.83M1278.67 3118.75H1358.58M1278.67 3118.75V3038.83M1358.58 3118.75H1438.5M1358.58 3118.75V3038.83M1438.5 3118.75H1440M1438.5 3118.75V3038.83M1.49844 3038.83H79.9168M79.9168 3038.83H159.834M79.9168 3038.83V2958.92M159.834 3038.83H239.75M159.834 3038.83V2958.92M239.75 3038.83H319.667M239.75 3038.83V2958.92M319.667 3038.83H399.584M319.667 3038.83V2958.92M399.584 3038.83H479.501M399.584 3038.83V2958.92M479.501 3038.83H559.417M479.501 3038.83V2958.92M559.417 3038.83H639.334M559.417 3038.83V2958.92M639.334 3038.83H719.251M639.334 3038.83V2958.92M719.251 3038.83H799.168M719.251 3038.83V2958.92M799.168 3038.83H879.084M799.168 3038.83V2958.92M879.084 3038.83H959.001M879.084 3038.83V2958.92M959.001 3038.83H1038.92M959.001 3038.83V2958.92M1038.92 3038.83H1118.83M1038.92 3038.83V2958.92M1118.83 3038.83H1198.75M1118.83 3038.83V2958.92M1198.75 3038.83H1278.67M1198.75 3038.83V2958.92M1278.67 3038.83H1358.58M1278.67 3038.83V2958.92M1358.58 3038.83H1438.5M1358.58 3038.83V2958.92M1438.5 3038.83H1440M1438.5 3038.83V2958.92M1.49844 2958.92H79.9168M79.9168 2958.92H159.834M79.9168 2958.92V2880.5M159.834 2958.92H239.75M159.834 2958.92V2880.5M239.75 2958.92H319.667M239.75 2958.92V2880.5M319.667 2958.92H399.584M319.667 2958.92V2880.5M399.584 2958.92H479.501M399.584 2958.92V2880.5M479.501 2958.92H559.417M479.501 2958.92V2880.5M559.417 2958.92H639.334M559.417 2958.92V2880.5M639.334 2958.92H719.251M639.334 2958.92V2880.5M719.251 2958.92H799.168M719.251 2958.92V2880.5M799.168 2958.92H879.084M799.168 2958.92V2880.5M879.084 2958.92H959.001M879.084 2958.92V2880.5M959.001 2958.92H1038.92M959.001 2958.92V2880.5M1038.92 2958.92H1118.83M1038.92 2958.92V2880.5M1118.83 2958.92H1198.75M1118.83 2958.92V2880.5M1198.75 2958.92H1278.67M1198.75 2958.92V2880.5M1278.67 2958.92H1358.58M1278.67 2958.92V2880.5M1358.58 2958.92H1438.5M1358.58 2958.92V2880.5M1438.5 2958.92H1440M1438.5 2958.92V2880.5M1.49844 2879H1440M0 4319V2880.5M1.49844 5755.5H79.9168M79.9168 5755.5H159.834M79.9168 5755.5V5757M79.9168 5755.5V5675.58M159.834 5755.5H239.75M159.834 5755.5V5757M159.834 5755.5V5675.58M239.75 5755.5H319.667M239.75 5755.5V5757M239.75 5755.5V5675.58M319.667 5755.5H399.584M319.667 5755.5V5757M319.667 5755.5V5675.58M399.584 5755.5H479.501M399.584 5755.5V5757M399.584 5755.5V5675.58M479.501 5755.5H559.417M479.501 5755.5V5757M479.501 5755.5V5675.58M559.417 5755.5H639.334M559.417 5755.5V5757M559.417 5755.5V5675.58M639.334 5755.5H719.251M639.334 5755.5V5757M639.334 5755.5V5675.58M719.251 5755.5H799.168M719.251 5755.5V5757M719.251 5755.5V5675.58M799.168 5755.5H879.084M799.168 5755.5V5757M799.168 5755.5V5675.58M879.084 5755.5H959.001M879.084 5755.5V5757M879.084 5755.5V5675.58M959.001 5755.5H1038.92M959.001 5755.5V5757M959.001 5755.5V5675.58M1038.92 5755.5H1118.83M1038.92 5755.5V5757M1038.92 5755.5V5675.58M1118.83 5755.5H1198.75M1118.83 5755.5V5757M1118.83 5755.5V5675.58M1198.75 5755.5H1278.67M1198.75 5755.5V5757M1198.75 5755.5V5675.58M1278.67 5755.5H1358.58M1278.67 5755.5V5757M1278.67 5755.5V5675.58M1358.58 5755.5H1438.5M1358.58 5755.5V5757M1358.58 5755.5V5675.58M1438.5 5755.5H1440M1438.5 5755.5V5757M1438.5 5755.5V5675.58M1.49844 5675.58H79.9168M79.9168 5675.58H159.834M79.9168 5675.58V5595.67M159.834 5675.58H239.75M159.834 5675.58V5595.67M239.75 5675.58H319.667M239.75 5675.58V5595.67M319.667 5675.58H399.584M319.667 5675.58V5595.67M399.584 5675.58H479.501M399.584 5675.58V5595.67M479.501 5675.58H559.417M479.501 5675.58V5595.67M559.417 5675.58H639.334M559.417 5675.58V5595.67M639.334 5675.58H719.251M639.334 5675.58V5595.67M719.251 5675.58H799.168M719.251 5675.58V5595.67M799.168 5675.58H879.084M799.168 5675.58V5595.67M879.084 5675.58H959.001M879.084 5675.58V5595.67M959.001 5675.58H1038.92M959.001 5675.58V5595.67M1038.92 5675.58H1118.83M1038.92 5675.58V5595.67M1118.83 5675.58H1198.75M1118.83 5675.58V5595.67M1198.75 5675.58H1278.67M1198.75 5675.58V5595.67M1278.67 5675.58H1358.58M1278.67 5675.58V5595.67M1358.58 5675.58H1438.5M1358.58 5675.58V5595.67M1438.5 5675.58H1440M1438.5 5675.58V5595.67M1.49844 5595.67H79.9168M79.9168 5595.67H159.834M79.9168 5595.67V5515.75M159.834 5595.67H239.75M159.834 5595.67V5515.75M239.75 5595.67H319.667M239.75 5595.67V5515.75M319.667 5595.67H399.584M319.667 5595.67V5515.75M399.584 5595.67H479.501M399.584 5595.67V5515.75M479.501 5595.67H559.417M479.501 5595.67V5515.75M559.417 5595.67H639.334M559.417 5595.67V5515.75M639.334 5595.67H719.251M639.334 5595.67V5515.75M719.251 5595.67H799.168M719.251 5595.67V5515.75M799.168 5595.67H879.084M799.168 5595.67V5515.75M879.084 5595.67H959.001M879.084 5595.67V5515.75M959.001 5595.67H1038.92M959.001 5595.67V5515.75M1038.92 5595.67H1118.83M1038.92 5595.67V5515.75M1118.83 5595.67H1198.75M1118.83 5595.67V5515.75M1198.75 5595.67H1278.67M1198.75 5595.67V5515.75M1278.67 5595.67H1358.58M1278.67 5595.67V5515.75M1358.58 5595.67H1438.5M1358.58 5595.67V5515.75M1438.5 5595.67H1440M1438.5 5595.67V5515.75M1.49844 5515.75H79.9168M79.9168 5515.75H159.834M79.9168 5515.75V5435.83M159.834 5515.75H239.75M159.834 5515.75V5435.83M239.75 5515.75H319.667M239.75 5515.75V5435.83M319.667 5515.75H399.584M319.667 5515.75V5435.83M399.584 5515.75H479.501M399.584 5515.75V5435.83M479.501 5515.75H559.417M479.501 5515.75V5435.83M559.417 5515.75H639.334M559.417 5515.75V5435.83M639.334 5515.75H719.251M639.334 5515.75V5435.83M719.251 5515.75H799.168M719.251 5515.75V5435.83M799.168 5515.75H879.084M799.168 5515.75V5435.83M879.084 5515.75H959.001M879.084 5515.75V5435.83M959.001 5515.75H1038.92M959.001 5515.75V5435.83M1038.92 5515.75H1118.83M1038.92 5515.75V5435.83M1118.83 5515.75H1198.75M1118.83 5515.75V5435.83M1198.75 5515.75H1278.67M1198.75 5515.75V5435.83M1278.67 5515.75H1358.58M1278.67 5515.75V5435.83M1358.58 5515.75H1438.5M1358.58 5515.75V5435.83M1438.5 5515.75H1440M1438.5 5515.75V5435.83M1.49844 5435.83H79.9168M79.9168 5435.83H159.834M79.9168 5435.83V5355.92M159.834 5435.83H239.75M159.834 5435.83V5355.92M239.75 5435.83H319.667M239.75 5435.83V5355.92M319.667 5435.83H399.584M319.667 5435.83V5355.92M399.584 5435.83H479.501M399.584 5435.83V5355.92M479.501 5435.83H559.417M479.501 5435.83V5355.92M559.417 5435.83H639.334M559.417 5435.83V5355.92M639.334 5435.83H719.251M639.334 5435.83V5355.92M719.251 5435.83H799.168M719.251 5435.83V5355.92M799.168 5435.83H879.084M799.168 5435.83V5355.92M879.084 5435.83H959.001M879.084 5435.83V5355.92M959.001 5435.83H1038.92M959.001 5435.83V5355.92M1038.92 5435.83H1118.83M1038.92 5435.83V5355.92M1118.83 5435.83H1198.75M1118.83 5435.83V5355.92M1198.75 5435.83H1278.67M1198.75 5435.83V5355.92M1278.67 5435.83H1358.58M1278.67 5435.83V5355.92M1358.58 5435.83H1438.5M1358.58 5435.83V5355.92M1438.5 5435.83H1440M1438.5 5435.83V5355.92M1.49844 5355.92H79.9168M79.9168 5355.92H159.834M79.9168 5355.92V5276M159.834 5355.92H239.75M159.834 5355.92V5276M239.75 5355.92H319.667M239.75 5355.92V5276M319.667 5355.92H399.584M319.667 5355.92V5276M399.584 5355.92H479.501M399.584 5355.92V5276M479.501 5355.92H559.417M479.501 5355.92V5276M559.417 5355.92H639.334M559.417 5355.92V5276M639.334 5355.92H719.251M639.334 5355.92V5276M719.251 5355.92H799.168M719.251 5355.92V5276M799.168 5355.92H879.084M799.168 5355.92V5276M879.084 5355.92H959.001M879.084 5355.92V5276M959.001 5355.92H1038.92M959.001 5355.92V5276M1038.92 5355.92H1118.83M1038.92 5355.92V5276M1118.83 5355.92H1198.75M1118.83 5355.92V5276M1198.75 5355.92H1278.67M1198.75 5355.92V5276M1278.67 5355.92H1358.58M1278.67 5355.92V5276M1358.58 5355.92H1438.5M1358.58 5355.92V5276M1438.5 5355.92H1440M1438.5 5355.92V5276M1.49844 5276H79.9168M79.9168 5276H159.834M79.9168 5276V5196.08M159.834 5276H239.75M159.834 5276V5196.08M239.75 5276H319.667M239.75 5276V5196.08M319.667 5276H399.584M319.667 5276V5196.08M399.584 5276H479.501M399.584 5276V5196.08M479.501 5276H559.417M479.501 5276V5196.08M559.417 5276H639.334M559.417 5276V5196.08M639.334 5276H719.251M639.334 5276V5196.08M719.251 5276H799.168M719.251 5276V5196.08M799.168 5276H879.084M799.168 5276V5196.08M879.084 5276H959.001M879.084 5276V5196.08M959.001 5276H1038.92M959.001 5276V5196.08M1038.92 5276H1118.83M1038.92 5276V5196.08M1118.83 5276H1198.75M1118.83 5276V5196.08M1198.75 5276H1278.67M1198.75 5276V5196.08M1278.67 5276H1358.58M1278.67 5276V5196.08M1358.58 5276H1438.5M1358.58 5276V5196.08M1438.5 5276H1440M1438.5 5276V5196.08M1.49844 5196.08H79.9168M79.9168 5196.08H159.834M79.9168 5196.08V5116.17M159.834 5196.08H239.75M159.834 5196.08V5116.17M239.75 5196.08H319.667M239.75 5196.08V5116.17M319.667 5196.08H399.584M319.667 5196.08V5116.17M399.584 5196.08H479.501M399.584 5196.08V5116.17M479.501 5196.08H559.417M479.501 5196.08V5116.17M559.417 5196.08H639.334M559.417 5196.08V5116.17M639.334 5196.08H719.251M639.334 5196.08V5116.17M719.251 5196.08H799.168M719.251 5196.08V5116.17M799.168 5196.08H879.084M799.168 5196.08V5116.17M879.084 5196.08H959.001M879.084 5196.08V5116.17M959.001 5196.08H1038.92M959.001 5196.08V5116.17M1038.92 5196.08H1118.83M1038.92 5196.08V5116.17M1118.83 5196.08H1198.75M1118.83 5196.08V5116.17M1198.75 5196.08H1278.67M1198.75 5196.08V5116.17M1278.67 5196.08H1358.58M1278.67 5196.08V5116.17M1358.58 5196.08H1438.5M1358.58 5196.08V5116.17M1438.5 5196.08H1440M1438.5 5196.08V5116.17M1.49844 5116.17H79.9168M79.9168 5116.17H159.834M79.9168 5116.17V5036.25M159.834 5116.17H239.75M159.834 5116.17V5036.25M239.75 5116.17H319.667M239.75 5116.17V5036.25M319.667 5116.17H399.584M319.667 5116.17V5036.25M399.584 5116.17H479.501M399.584 5116.17V5036.25M479.501 5116.17H559.417M479.501 5116.17V5036.25M559.417 5116.17H639.334M559.417 5116.17V5036.25M639.334 5116.17H719.251M639.334 5116.17V5036.25M719.251 5116.17H799.168M719.251 5116.17V5036.25M799.168 5116.17H879.084M799.168 5116.17V5036.25M879.084 5116.17H959.001M879.084 5116.17V5036.25M959.001 5116.17H1038.92M959.001 5116.17V5036.25M1038.92 5116.17H1118.83M1038.92 5116.17V5036.25M1118.83 5116.17H1198.75M1118.83 5116.17V5036.25M1198.75 5116.17H1278.67M1198.75 5116.17V5036.25M1278.67 5116.17H1358.58M1278.67 5116.17V5036.25M1358.58 5116.17H1438.5M1358.58 5116.17V5036.25M1438.5 5116.17H1440M1438.5 5116.17V5036.25M1.49844 5036.25H79.9168M79.9168 5036.25H159.834M79.9168 5036.25V4956.33M159.834 5036.25H239.75M159.834 5036.25V4956.33M239.75 5036.25H319.667M239.75 5036.25V4956.33M319.667 5036.25H399.584M319.667 5036.25V4956.33M399.584 5036.25H479.501M399.584 5036.25V4956.33M479.501 5036.25H559.417M479.501 5036.25V4956.33M559.417 5036.25H639.334M559.417 5036.25V4956.33M639.334 5036.25H719.251M639.334 5036.25V4956.33M719.251 5036.25H799.168M719.251 5036.25V4956.33M799.168 5036.25H879.084M799.168 5036.25V4956.33M879.084 5036.25H959.001M879.084 5036.25V4956.33M959.001 5036.25H1038.92M959.001 5036.25V4956.33M1038.92 5036.25H1118.83M1038.92 5036.25V4956.33M1118.83 5036.25H1198.75M1118.83 5036.25V4956.33M1198.75 5036.25H1278.67M1198.75 5036.25V4956.33M1278.67 5036.25H1358.58M1278.67 5036.25V4956.33M1358.58 5036.25H1438.5M1358.58 5036.25V4956.33M1438.5 5036.25H1440M1438.5 5036.25V4956.33M1.49844 4956.33H79.9168M79.9168 4956.33H159.834M79.9168 4956.33V4876.42M159.834 4956.33H239.75M159.834 4956.33V4876.42M239.75 4956.33H319.667M239.75 4956.33V4876.42M319.667 4956.33H399.584M319.667 4956.33V4876.42M399.584 4956.33H479.501M399.584 4956.33V4876.42M479.501 4956.33H559.417M479.501 4956.33V4876.42M559.417 4956.33H639.334M559.417 4956.33V4876.42M639.334 4956.33H719.251M639.334 4956.33V4876.42M719.251 4956.33H799.168M719.251 4956.33V4876.42M799.168 4956.33H879.084M799.168 4956.33V4876.42M879.084 4956.33H959.001M879.084 4956.33V4876.42M959.001 4956.33H1038.92M959.001 4956.33V4876.42M1038.92 4956.33H1118.83M1038.92 4956.33V4876.42M1118.83 4956.33H1198.75M1118.83 4956.33V4876.42M1198.75 4956.33H1278.67M1198.75 4956.33V4876.42M1278.67 4956.33H1358.58M1278.67 4956.33V4876.42M1358.58 4956.33H1438.5M1358.58 4956.33V4876.42M1438.5 4956.33H1440M1438.5 4956.33V4876.42M1.49844 4876.42H79.9168M79.9168 4876.42H159.834M79.9168 4876.42V4796.5M159.834 4876.42H239.75M159.834 4876.42V4796.5M239.75 4876.42H319.667M239.75 4876.42V4796.5M319.667 4876.42H399.584M319.667 4876.42V4796.5M399.584 4876.42H479.501M399.584 4876.42V4796.5M479.501 4876.42H559.417M479.501 4876.42V4796.5M559.417 4876.42H639.334M559.417 4876.42V4796.5M639.334 4876.42H719.251M639.334 4876.42V4796.5M719.251 4876.42H799.168M719.251 4876.42V4796.5M799.168 4876.42H879.084M799.168 4876.42V4796.5M879.084 4876.42H959.001M879.084 4876.42V4796.5M959.001 4876.42H1038.92M959.001 4876.42V4796.5M1038.92 4876.42H1118.83M1038.92 4876.42V4796.5M1118.83 4876.42H1198.75M1118.83 4876.42V4796.5M1198.75 4876.42H1278.67M1198.75 4876.42V4796.5M1278.67 4876.42H1358.58M1278.67 4876.42V4796.5M1358.58 4876.42H1438.5M1358.58 4876.42V4796.5M1438.5 4876.42H1440M1438.5 4876.42V4796.5M1.49844 4796.5H79.9168M79.9168 4796.5H159.834M79.9168 4796.5V4716.58M159.834 4796.5H239.75M159.834 4796.5V4716.58M239.75 4796.5H319.667M239.75 4796.5V4716.58M319.667 4796.5H399.584M319.667 4796.5V4716.58M399.584 4796.5H479.501M399.584 4796.5V4716.58M479.501 4796.5H559.417M479.501 4796.5V4716.58M559.417 4796.5H639.334M559.417 4796.5V4716.58M639.334 4796.5H719.251M639.334 4796.5V4716.58M719.251 4796.5H799.168M719.251 4796.5V4716.58M799.168 4796.5H879.084M799.168 4796.5V4716.58M879.084 4796.5H959.001M879.084 4796.5V4716.58M959.001 4796.5H1038.92M959.001 4796.5V4716.58M1038.92 4796.5H1118.83M1038.92 4796.5V4716.58M1118.83 4796.5H1198.75M1118.83 4796.5V4716.58M1198.75 4796.5H1278.67M1198.75 4796.5V4716.58M1278.67 4796.5H1358.58M1278.67 4796.5V4716.58M1358.58 4796.5H1438.5M1358.58 4796.5V4716.58M1438.5 4796.5H1440M1438.5 4796.5V4716.58M1.49844 4716.58H79.9168M79.9168 4716.58H159.834M79.9168 4716.58V4636.67M159.834 4716.58H239.75M159.834 4716.58V4636.67M239.75 4716.58H319.667M239.75 4716.58V4636.67M319.667 4716.58H399.584M319.667 4716.58V4636.67M399.584 4716.58H479.501M399.584 4716.58V4636.67M479.501 4716.58H559.417M479.501 4716.58V4636.67M559.417 4716.58H639.334M559.417 4716.58V4636.67M639.334 4716.58H719.251M639.334 4716.58V4636.67M719.251 4716.58H799.168M719.251 4716.58V4636.67M799.168 4716.58H879.084M799.168 4716.58V4636.67M879.084 4716.58H959.001M879.084 4716.58V4636.67M959.001 4716.58H1038.92M959.001 4716.58V4636.67M1038.92 4716.58H1118.83M1038.92 4716.58V4636.67M1118.83 4716.58H1198.75M1118.83 4716.58V4636.67M1198.75 4716.58H1278.67M1198.75 4716.58V4636.67M1278.67 4716.58H1358.58M1278.67 4716.58V4636.67M1358.58 4716.58H1438.5M1358.58 4716.58V4636.67M1438.5 4716.58H1440M1438.5 4716.58V4636.67M1.49844 4636.67H79.9168M79.9168 4636.67H159.834M79.9168 4636.67V4556.75M159.834 4636.67H239.75M159.834 4636.67V4556.75M239.75 4636.67H319.667M239.75 4636.67V4556.75M319.667 4636.67H399.584M319.667 4636.67V4556.75M399.584 4636.67H479.501M399.584 4636.67V4556.75M479.501 4636.67H559.417M479.501 4636.67V4556.75M559.417 4636.67H639.334M559.417 4636.67V4556.75M639.334 4636.67H719.251M639.334 4636.67V4556.75M719.251 4636.67H799.168M719.251 4636.67V4556.75M799.168 4636.67H879.084M799.168 4636.67V4556.75M879.084 4636.67H959.001M879.084 4636.67V4556.75M959.001 4636.67H1038.92M959.001 4636.67V4556.75M1038.92 4636.67H1118.83M1038.92 4636.67V4556.75M1118.83 4636.67H1198.75M1118.83 4636.67V4556.75M1198.75 4636.67H1278.67M1198.75 4636.67V4556.75M1278.67 4636.67H1358.58M1278.67 4636.67V4556.75M1358.58 4636.67H1438.5M1358.58 4636.67V4556.75M1438.5 4636.67H1440M1438.5 4636.67V4556.75M1.49844 4556.75H79.9168M79.9168 4556.75H159.834M79.9168 4556.75V4476.83M159.834 4556.75H239.75M159.834 4556.75V4476.83M239.75 4556.75H319.667M239.75 4556.75V4476.83M319.667 4556.75H399.584M319.667 4556.75V4476.83M399.584 4556.75H479.501M399.584 4556.75V4476.83M479.501 4556.75H559.417M479.501 4556.75V4476.83M559.417 4556.75H639.334M559.417 4556.75V4476.83M639.334 4556.75H719.251M639.334 4556.75V4476.83M719.251 4556.75H799.168M719.251 4556.75V4476.83M799.168 4556.75H879.084M799.168 4556.75V4476.83M879.084 4556.75H959.001M879.084 4556.75V4476.83M959.001 4556.75H1038.92M959.001 4556.75V4476.83M1038.92 4556.75H1118.83M1038.92 4556.75V4476.83M1118.83 4556.75H1198.75M1118.83 4556.75V4476.83M1198.75 4556.75H1278.67M1198.75 4556.75V4476.83M1278.67 4556.75H1358.58M1278.67 4556.75V4476.83M1358.58 4556.75H1438.5M1358.58 4556.75V4476.83M1438.5 4556.75H1440M1438.5 4556.75V4476.83M1.49844 4476.83H79.9168M79.9168 4476.83H159.834M79.9168 4476.83V4396.92M159.834 4476.83H239.75M159.834 4476.83V4396.92M239.75 4476.83H319.667M239.75 4476.83V4396.92M319.667 4476.83H399.584M319.667 4476.83V4396.92M399.584 4476.83H479.501M399.584 4476.83V4396.92M479.501 4476.83H559.417M479.501 4476.83V4396.92M559.417 4476.83H639.334M559.417 4476.83V4396.92M639.334 4476.83H719.251M639.334 4476.83V4396.92M719.251 4476.83H799.168M719.251 4476.83V4396.92M799.168 4476.83H879.084M799.168 4476.83V4396.92M879.084 4476.83H959.001M879.084 4476.83V4396.92M959.001 4476.83H1038.92M959.001 4476.83V4396.92M1038.92 4476.83H1118.83M1038.92 4476.83V4396.92M1118.83 4476.83H1198.75M1118.83 4476.83V4396.92M1198.75 4476.83H1278.67M1198.75 4476.83V4396.92M1278.67 4476.83H1358.58M1278.67 4476.83V4396.92M1358.58 4476.83H1438.5M1358.58 4476.83V4396.92M1438.5 4476.83H1440M1438.5 4476.83V4396.92M1.49844 4396.92H79.9168M79.9168 4396.92H159.834M79.9168 4396.92V4318.5M159.834 4396.92H239.75M159.834 4396.92V4318.5M239.75 4396.92H319.667M239.75 4396.92V4318.5M319.667 4396.92H399.584M319.667 4396.92V4318.5M399.584 4396.92H479.501M399.584 4396.92V4318.5M479.501 4396.92H559.417M479.501 4396.92V4318.5M559.417 4396.92H639.334M559.417 4396.92V4318.5M639.334 4396.92H719.251M639.334 4396.92V4318.5M719.251 4396.92H799.168M719.251 4396.92V4318.5M799.168 4396.92H879.084M799.168 4396.92V4318.5M879.084 4396.92H959.001M879.084 4396.92V4318.5M959.001 4396.92H1038.92M959.001 4396.92V4318.5M1038.92 4396.92H1118.83M1038.92 4396.92V4318.5M1118.83 4396.92H1198.75M1118.83 4396.92V4318.5M1198.75 4396.92H1278.67M1198.75 4396.92V4318.5M1278.67 4396.92H1358.58M1278.67 4396.92V4318.5M1358.58 4396.92H1438.5M1358.58 4396.92V4318.5M1438.5 4396.92H1440M1438.5 4396.92V4318.5M1.49844 4317H1440M0 5757V4318.5M1.49844 7194.5H79.9168M79.9168 7194.5H159.834M79.9168 7194.5V7196M79.9168 7194.5V7114.58M159.834 7194.5H239.75M159.834 7194.5V7196M159.834 7194.5V7114.58M239.75 7194.5H319.667M239.75 7194.5V7196M239.75 7194.5V7114.58M319.667 7194.5H399.584M319.667 7194.5V7196M319.667 7194.5V7114.58M399.584 7194.5H479.501M399.584 7194.5V7196M399.584 7194.5V7114.58M479.501 7194.5H559.417M479.501 7194.5V7196M479.501 7194.5V7114.58M559.417 7194.5H639.334M559.417 7194.5V7196M559.417 7194.5V7114.58M639.334 7194.5H719.251M639.334 7194.5V7196M639.334 7194.5V7114.58M719.251 7194.5H799.168M719.251 7194.5V7196M719.251 7194.5V7114.58M799.168 7194.5H879.084M799.168 7194.5V7196M799.168 7194.5V7114.58M879.084 7194.5H959.001M879.084 7194.5V7196M879.084 7194.5V7114.58M959.001 7194.5H1038.92M959.001 7194.5V7196M959.001 7194.5V7114.58M1038.92 7194.5H1118.83M1038.92 7194.5V7196M1038.92 7194.5V7114.58M1118.83 7194.5H1198.75M1118.83 7194.5V7196M1118.83 7194.5V7114.58M1198.75 7194.5H1278.67M1198.75 7194.5V7196M1198.75 7194.5V7114.58M1278.67 7194.5H1358.58M1278.67 7194.5V7196M1278.67 7194.5V7114.58M1358.58 7194.5H1438.5M1358.58 7194.5V7196M1358.58 7194.5V7114.58M1438.5 7194.5H1440M1438.5 7194.5V7196M1438.5 7194.5V7114.58M1.49844 7114.58H79.9168M79.9168 7114.58H159.834M79.9168 7114.58V7034.67M159.834 7114.58H239.75M159.834 7114.58V7034.67M239.75 7114.58H319.667M239.75 7114.58V7034.67M319.667 7114.58H399.584M319.667 7114.58V7034.67M399.584 7114.58H479.501M399.584 7114.58V7034.67M479.501 7114.58H559.417M479.501 7114.58V7034.67M559.417 7114.58H639.334M559.417 7114.58V7034.67M639.334 7114.58H719.251M639.334 7114.58V7034.67M719.251 7114.58H799.168M719.251 7114.58V7034.67M799.168 7114.58H879.084M799.168 7114.58V7034.67M879.084 7114.58H959.001M879.084 7114.58V7034.67M959.001 7114.58H1038.92M959.001 7114.58V7034.67M1038.92 7114.58H1118.83M1038.92 7114.58V7034.67M1118.83 7114.58H1198.75M1118.83 7114.58V7034.67M1198.75 7114.58H1278.67M1198.75 7114.58V7034.67M1278.67 7114.58H1358.58M1278.67 7114.58V7034.67M1358.58 7114.58H1438.5M1358.58 7114.58V7034.67M1438.5 7114.58H1440M1438.5 7114.58V7034.67M1.49844 7034.67H79.9168M79.9168 7034.67H159.834M79.9168 7034.67V6954.75M159.834 7034.67H239.75M159.834 7034.67V6954.75M239.75 7034.67H319.667M239.75 7034.67V6954.75M319.667 7034.67H399.584M319.667 7034.67V6954.75M399.584 7034.67H479.501M399.584 7034.67V6954.75M479.501 7034.67H559.417M479.501 7034.67V6954.75M559.417 7034.67H639.334M559.417 7034.67V6954.75M639.334 7034.67H719.251M639.334 7034.67V6954.75M719.251 7034.67H799.168M719.251 7034.67V6954.75M799.168 7034.67H879.084M799.168 7034.67V6954.75M879.084 7034.67H959.001M879.084 7034.67V6954.75M959.001 7034.67H1038.92M959.001 7034.67V6954.75M1038.92 7034.67H1118.83M1038.92 7034.67V6954.75M1118.83 7034.67H1198.75M1118.83 7034.67V6954.75M1198.75 7034.67H1278.67M1198.75 7034.67V6954.75M1278.67 7034.67H1358.58M1278.67 7034.67V6954.75M1358.58 7034.67H1438.5M1358.58 7034.67V6954.75M1438.5 7034.67H1440M1438.5 7034.67V6954.75M1.49844 6954.75H79.9168M79.9168 6954.75H159.834M79.9168 6954.75V6874.83M159.834 6954.75H239.75M159.834 6954.75V6874.83M239.75 6954.75H319.667M239.75 6954.75V6874.83M319.667 6954.75H399.584M319.667 6954.75V6874.83M399.584 6954.75H479.501M399.584 6954.75V6874.83M479.501 6954.75H559.417M479.501 6954.75V6874.83M559.417 6954.75H639.334M559.417 6954.75V6874.83M639.334 6954.75H719.251M639.334 6954.75V6874.83M719.251 6954.75H799.168M719.251 6954.75V6874.83M799.168 6954.75H879.084M799.168 6954.75V6874.83M879.084 6954.75H959.001M879.084 6954.75V6874.83M959.001 6954.75H1038.92M959.001 6954.75V6874.83M1038.92 6954.75H1118.83M1038.92 6954.75V6874.83M1118.83 6954.75H1198.75M1118.83 6954.75V6874.83M1198.75 6954.75H1278.67M1198.75 6954.75V6874.83M1278.67 6954.75H1358.58M1278.67 6954.75V6874.83M1358.58 6954.75H1438.5M1358.58 6954.75V6874.83M1438.5 6954.75H1440M1438.5 6954.75V6874.83M1.49844 6874.83H79.9168M79.9168 6874.83H159.834M79.9168 6874.83V6794.92M159.834 6874.83H239.75M159.834 6874.83V6794.92M239.75 6874.83H319.667M239.75 6874.83V6794.92M319.667 6874.83H399.584M319.667 6874.83V6794.92M399.584 6874.83H479.501M399.584 6874.83V6794.92M479.501 6874.83H559.417M479.501 6874.83V6794.92M559.417 6874.83H639.334M559.417 6874.83V6794.92M639.334 6874.83H719.251M639.334 6874.83V6794.92M719.251 6874.83H799.168M719.251 6874.83V6794.92M799.168 6874.83H879.084M799.168 6874.83V6794.92M879.084 6874.83H959.001M879.084 6874.83V6794.92M959.001 6874.83H1038.92M959.001 6874.83V6794.92M1038.92 6874.83H1118.83M1038.92 6874.83V6794.92M1118.83 6874.83H1198.75M1118.83 6874.83V6794.92M1198.75 6874.83H1278.67M1198.75 6874.83V6794.92M1278.67 6874.83H1358.58M1278.67 6874.83V6794.92M1358.58 6874.83H1438.5M1358.58 6874.83V6794.92M1438.5 6874.83H1440M1438.5 6874.83V6794.92M1.49844 6794.92H79.9168M79.9168 6794.92H159.834M79.9168 6794.92V6715M159.834 6794.92H239.75M159.834 6794.92V6715M239.75 6794.92H319.667M239.75 6794.92V6715M319.667 6794.92H399.584M319.667 6794.92V6715M399.584 6794.92H479.501M399.584 6794.92V6715M479.501 6794.92H559.417M479.501 6794.92V6715M559.417 6794.92H639.334M559.417 6794.92V6715M639.334 6794.92H719.251M639.334 6794.92V6715M719.251 6794.92H799.168M719.251 6794.92V6715M799.168 6794.92H879.084M799.168 6794.92V6715M879.084 6794.92H959.001M879.084 6794.92V6715M959.001 6794.92H1038.92M959.001 6794.92V6715M1038.92 6794.92H1118.83M1038.92 6794.92V6715M1118.83 6794.92H1198.75M1118.83 6794.92V6715M1198.75 6794.92H1278.67M1198.75 6794.92V6715M1278.67 6794.92H1358.58M1278.67 6794.92V6715M1358.58 6794.92H1438.5M1358.58 6794.92V6715M1438.5 6794.92H1440M1438.5 6794.92V6715M1.49844 6715H79.9168M79.9168 6715H159.834M79.9168 6715V6635.08M159.834 6715H239.75M159.834 6715V6635.08M239.75 6715H319.667M239.75 6715V6635.08M319.667 6715H399.584M319.667 6715V6635.08M399.584 6715H479.501M399.584 6715V6635.08M479.501 6715H559.417M479.501 6715V6635.08M559.417 6715H639.334M559.417 6715V6635.08M639.334 6715H719.251M639.334 6715V6635.08M719.251 6715H799.168M719.251 6715V6635.08M799.168 6715H879.084M799.168 6715V6635.08M879.084 6715H959.001M879.084 6715V6635.08M959.001 6715H1038.92M959.001 6715V6635.08M1038.92 6715H1118.83M1038.92 6715V6635.08M1118.83 6715H1198.75M1118.83 6715V6635.08M1198.75 6715H1278.67M1198.75 6715V6635.08M1278.67 6715H1358.58M1278.67 6715V6635.08M1358.58 6715H1438.5M1358.58 6715V6635.08M1438.5 6715H1440M1438.5 6715V6635.08M1.49844 6635.08H79.9168M79.9168 6635.08H159.834M79.9168 6635.08V6555.17M159.834 6635.08H239.75M159.834 6635.08V6555.17M239.75 6635.08H319.667M239.75 6635.08V6555.17M319.667 6635.08H399.584M319.667 6635.08V6555.17M399.584 6635.08H479.501M399.584 6635.08V6555.17M479.501 6635.08H559.417M479.501 6635.08V6555.17M559.417 6635.08H639.334M559.417 6635.08V6555.17M639.334 6635.08H719.251M639.334 6635.08V6555.17M719.251 6635.08H799.168M719.251 6635.08V6555.17M799.168 6635.08H879.084M799.168 6635.08V6555.17M879.084 6635.08H959.001M879.084 6635.08V6555.17M959.001 6635.08H1038.92M959.001 6635.08V6555.17M1038.92 6635.08H1118.83M1038.92 6635.08V6555.17M1118.83 6635.08H1198.75M1118.83 6635.08V6555.17M1198.75 6635.08H1278.67M1198.75 6635.08V6555.17M1278.67 6635.08H1358.58M1278.67 6635.08V6555.17M1358.58 6635.08H1438.5M1358.58 6635.08V6555.17M1438.5 6635.08H1440M1438.5 6635.08V6555.17M1.49844 6555.17H79.9168M79.9168 6555.17H159.834M79.9168 6555.17V6475.25M159.834 6555.17H239.75M159.834 6555.17V6475.25M239.75 6555.17H319.667M239.75 6555.17V6475.25M319.667 6555.17H399.584M319.667 6555.17V6475.25M399.584 6555.17H479.501M399.584 6555.17V6475.25M479.501 6555.17H559.417M479.501 6555.17V6475.25M559.417 6555.17H639.334M559.417 6555.17V6475.25M639.334 6555.17H719.251M639.334 6555.17V6475.25M719.251 6555.17H799.168M719.251 6555.17V6475.25M799.168 6555.17H879.084M799.168 6555.17V6475.25M879.084 6555.17H959.001M879.084 6555.17V6475.25M959.001 6555.17H1038.92M959.001 6555.17V6475.25M1038.92 6555.17H1118.83M1038.92 6555.17V6475.25M1118.83 6555.17H1198.75M1118.83 6555.17V6475.25M1198.75 6555.17H1278.67M1198.75 6555.17V6475.25M1278.67 6555.17H1358.58M1278.67 6555.17V6475.25M1358.58 6555.17H1438.5M1358.58 6555.17V6475.25M1438.5 6555.17H1440M1438.5 6555.17V6475.25M1.49844 6475.25H79.9168M79.9168 6475.25H159.834M79.9168 6475.25V6395.33M159.834 6475.25H239.75M159.834 6475.25V6395.33M239.75 6475.25H319.667M239.75 6475.25V6395.33M319.667 6475.25H399.584M319.667 6475.25V6395.33M399.584 6475.25H479.501M399.584 6475.25V6395.33M479.501 6475.25H559.417M479.501 6475.25V6395.33M559.417 6475.25H639.334M559.417 6475.25V6395.33M639.334 6475.25H719.251M639.334 6475.25V6395.33M719.251 6475.25H799.168M719.251 6475.25V6395.33M799.168 6475.25H879.084M799.168 6475.25V6395.33M879.084 6475.25H959.001M879.084 6475.25V6395.33M959.001 6475.25H1038.92M959.001 6475.25V6395.33M1038.92 6475.25H1118.83M1038.92 6475.25V6395.33M1118.83 6475.25H1198.75M1118.83 6475.25V6395.33M1198.75 6475.25H1278.67M1198.75 6475.25V6395.33M1278.67 6475.25H1358.58M1278.67 6475.25V6395.33M1358.58 6475.25H1438.5M1358.58 6475.25V6395.33M1438.5 6475.25H1440M1438.5 6475.25V6395.33M1.49844 6395.33H79.9168M79.9168 6395.33H159.834M79.9168 6395.33V6315.42M159.834 6395.33H239.75M159.834 6395.33V6315.42M239.75 6395.33H319.667M239.75 6395.33V6315.42M319.667 6395.33H399.584M319.667 6395.33V6315.42M399.584 6395.33H479.501M399.584 6395.33V6315.42M479.501 6395.33H559.417M479.501 6395.33V6315.42M559.417 6395.33H639.334M559.417 6395.33V6315.42M639.334 6395.33H719.251M639.334 6395.33V6315.42M719.251 6395.33H799.168M719.251 6395.33V6315.42M799.168 6395.33H879.084M799.168 6395.33V6315.42M879.084 6395.33H959.001M879.084 6395.33V6315.42M959.001 6395.33H1038.92M959.001 6395.33V6315.42M1038.92 6395.33H1118.83M1038.92 6395.33V6315.42M1118.83 6395.33H1198.75M1118.83 6395.33V6315.42M1198.75 6395.33H1278.67M1198.75 6395.33V6315.42M1278.67 6395.33H1358.58M1278.67 6395.33V6315.42M1358.58 6395.33H1438.5M1358.58 6395.33V6315.42M1438.5 6395.33H1440M1438.5 6395.33V6315.42M1.49844 6315.42H79.9168M79.9168 6315.42H159.834M79.9168 6315.42V6235.5M159.834 6315.42H239.75M159.834 6315.42V6235.5M239.75 6315.42H319.667M239.75 6315.42V6235.5M319.667 6315.42H399.584M319.667 6315.42V6235.5M399.584 6315.42H479.501M399.584 6315.42V6235.5M479.501 6315.42H559.417M479.501 6315.42V6235.5M559.417 6315.42H639.334M559.417 6315.42V6235.5M639.334 6315.42H719.251M639.334 6315.42V6235.5M719.251 6315.42H799.168M719.251 6315.42V6235.5M799.168 6315.42H879.084M799.168 6315.42V6235.5M879.084 6315.42H959.001M879.084 6315.42V6235.5M959.001 6315.42H1038.92M959.001 6315.42V6235.5M1038.92 6315.42H1118.83M1038.92 6315.42V6235.5M1118.83 6315.42H1198.75M1118.83 6315.42V6235.5M1198.75 6315.42H1278.67M1198.75 6315.42V6235.5M1278.67 6315.42H1358.58M1278.67 6315.42V6235.5M1358.58 6315.42H1438.5M1358.58 6315.42V6235.5M1438.5 6315.42H1440M1438.5 6315.42V6235.5M1.49844 6235.5H79.9168M79.9168 6235.5H159.834M79.9168 6235.5V6155.58M159.834 6235.5H239.75M159.834 6235.5V6155.58M239.75 6235.5H319.667M239.75 6235.5V6155.58M319.667 6235.5H399.584M319.667 6235.5V6155.58M399.584 6235.5H479.501M399.584 6235.5V6155.58M479.501 6235.5H559.417M479.501 6235.5V6155.58M559.417 6235.5H639.334M559.417 6235.5V6155.58M639.334 6235.5H719.251M639.334 6235.5V6155.58M719.251 6235.5H799.168M719.251 6235.5V6155.58M799.168 6235.5H879.084M799.168 6235.5V6155.58M879.084 6235.5H959.001M879.084 6235.5V6155.58M959.001 6235.5H1038.92M959.001 6235.5V6155.58M1038.92 6235.5H1118.83M1038.92 6235.5V6155.58M1118.83 6235.5H1198.75M1118.83 6235.5V6155.58M1198.75 6235.5H1278.67M1198.75 6235.5V6155.58M1278.67 6235.5H1358.58M1278.67 6235.5V6155.58M1358.58 6235.5H1438.5M1358.58 6235.5V6155.58M1438.5 6235.5H1440M1438.5 6235.5V6155.58M1.49844 6155.58H79.9168M79.9168 6155.58H159.834M79.9168 6155.58V6075.67M159.834 6155.58H239.75M159.834 6155.58V6075.67M239.75 6155.58H319.667M239.75 6155.58V6075.67M319.667 6155.58H399.584M319.667 6155.58V6075.67M399.584 6155.58H479.501M399.584 6155.58V6075.67M479.501 6155.58H559.417M479.501 6155.58V6075.67M559.417 6155.58H639.334M559.417 6155.58V6075.67M639.334 6155.58H719.251M639.334 6155.58V6075.67M719.251 6155.58H799.168M719.251 6155.58V6075.67M799.168 6155.58H879.084M799.168 6155.58V6075.67M879.084 6155.58H959.001M879.084 6155.58V6075.67M959.001 6155.58H1038.92M959.001 6155.58V6075.67M1038.92 6155.58H1118.83M1038.92 6155.58V6075.67M1118.83 6155.58H1198.75M1118.83 6155.58V6075.67M1198.75 6155.58H1278.67M1198.75 6155.58V6075.67M1278.67 6155.58H1358.58M1278.67 6155.58V6075.67M1358.58 6155.58H1438.5M1358.58 6155.58V6075.67M1438.5 6155.58H1440M1438.5 6155.58V6075.67M1.49844 6075.67H79.9168M79.9168 6075.67H159.834M79.9168 6075.67V5995.75M159.834 6075.67H239.75M159.834 6075.67V5995.75M239.75 6075.67H319.667M239.75 6075.67V5995.75M319.667 6075.67H399.584M319.667 6075.67V5995.75M399.584 6075.67H479.501M399.584 6075.67V5995.75M479.501 6075.67H559.417M479.501 6075.67V5995.75M559.417 6075.67H639.334M559.417 6075.67V5995.75M639.334 6075.67H719.251M639.334 6075.67V5995.75M719.251 6075.67H799.168M719.251 6075.67V5995.75M799.168 6075.67H879.084M799.168 6075.67V5995.75M879.084 6075.67H959.001M879.084 6075.67V5995.75M959.001 6075.67H1038.92M959.001 6075.67V5995.75M1038.92 6075.67H1118.83M1038.92 6075.67V5995.75M1118.83 6075.67H1198.75M1118.83 6075.67V5995.75M1198.75 6075.67H1278.67M1198.75 6075.67V5995.75M1278.67 6075.67H1358.58M1278.67 6075.67V5995.75M1358.58 6075.67H1438.5M1358.58 6075.67V5995.75M1438.5 6075.67H1440M1438.5 6075.67V5995.75M1.49844 5995.75H79.9168M79.9168 5995.75H159.834M79.9168 5995.75V5915.83M159.834 5995.75H239.75M159.834 5995.75V5915.83M239.75 5995.75H319.667M239.75 5995.75V5915.83M319.667 5995.75H399.584M319.667 5995.75V5915.83M399.584 5995.75H479.501M399.584 5995.75V5915.83M479.501 5995.75H559.417M479.501 5995.75V5915.83M559.417 5995.75H639.334M559.417 5995.75V5915.83M639.334 5995.75H719.251M639.334 5995.75V5915.83M719.251 5995.75H799.168M719.251 5995.75V5915.83M799.168 5995.75H879.084M799.168 5995.75V5915.83M879.084 5995.75H959.001M879.084 5995.75V5915.83M959.001 5995.75H1038.92M959.001 5995.75V5915.83M1038.92 5995.75H1118.83M1038.92 5995.75V5915.83M1118.83 5995.75H1198.75M1118.83 5995.75V5915.83M1198.75 5995.75H1278.67M1198.75 5995.75V5915.83M1278.67 5995.75H1358.58M1278.67 5995.75V5915.83M1358.58 5995.75H1438.5M1358.58 5995.75V5915.83M1438.5 5995.75H1440M1438.5 5995.75V5915.83M1.49844 5915.83H79.9168M79.9168 5915.83H159.834M79.9168 5915.83V5835.92M159.834 5915.83H239.75M159.834 5915.83V5835.92M239.75 5915.83H319.667M239.75 5915.83V5835.92M319.667 5915.83H399.584M319.667 5915.83V5835.92M399.584 5915.83H479.501M399.584 5915.83V5835.92M479.501 5915.83H559.417M479.501 5915.83V5835.92M559.417 5915.83H639.334M559.417 5915.83V5835.92M639.334 5915.83H719.251M639.334 5915.83V5835.92M719.251 5915.83H799.168M719.251 5915.83V5835.92M799.168 5915.83H879.084M799.168 5915.83V5835.92M879.084 5915.83H959.001M879.084 5915.83V5835.92M959.001 5915.83H1038.92M959.001 5915.83V5835.92M1038.92 5915.83H1118.83M1038.92 5915.83V5835.92M1118.83 5915.83H1198.75M1118.83 5915.83V5835.92M1198.75 5915.83H1278.67M1198.75 5915.83V5835.92M1278.67 5915.83H1358.58M1278.67 5915.83V5835.92M1358.58 5915.83H1438.5M1358.58 5915.83V5835.92M1438.5 5915.83H1440M1438.5 5915.83V5835.92M1.49844 5835.92H79.9168M79.9168 5835.92H159.834M79.9168 5835.92V5757.5M159.834 5835.92H239.75M159.834 5835.92V5757.5M239.75 5835.92H319.667M239.75 5835.92V5757.5M319.667 5835.92H399.584M319.667 5835.92V5757.5M399.584 5835.92H479.501M399.584 5835.92V5757.5M479.501 5835.92H559.417M479.501 5835.92V5757.5M559.417 5835.92H639.334M559.417 5835.92V5757.5M639.334 5835.92H719.251M639.334 5835.92V5757.5M719.251 5835.92H799.168M719.251 5835.92V5757.5M799.168 5835.92H879.084M799.168 5835.92V5757.5M879.084 5835.92H959.001M879.084 5835.92V5757.5M959.001 5835.92H1038.92M959.001 5835.92V5757.5M1038.92 5835.92H1118.83M1038.92 5835.92V5757.5M1118.83 5835.92H1198.75M1118.83 5835.92V5757.5M1198.75 5835.92H1278.67M1198.75 5835.92V5757.5M1278.67 5835.92H1358.58M1278.67 5835.92V5757.5M1358.58 5835.92H1438.5M1358.58 5835.92V5757.5M1438.5 5835.92H1440M1438.5 5835.92V5757.5M1.49844 5756H1440M0 7196V5757.5" stroke="#F1F1F1" stroke-opacity="0.5" stroke-width="3"/>
</svg>